<svg width="1157" height="838" viewBox="0 0 1157 838" fill="none" xmlns="http://www.w3.org/2000/svg">
<g style="mix-blend-mode:overlay" clip-path="url(#clip0_1_72)" filter="url(#filter0_f_1_72)">
<g opacity="0.4">
<path d="M294.506 117.661C294.722 117.661 294.897 117.486 294.897 117.27C294.897 117.054 294.722 116.879 294.506 116.879C294.291 116.879 294.116 117.054 294.116 117.27C294.116 117.486 294.291 117.661 294.506 117.661Z" fill="white"/>
<path d="M364.822 125.473C365.038 125.473 365.212 125.299 365.212 125.083C365.212 124.867 365.038 124.692 364.822 124.692C364.606 124.692 364.431 124.867 364.431 125.083C364.431 125.299 364.606 125.473 364.822 125.473Z" fill="white"/>
<path d="M435.138 86.4093C435.353 86.4093 435.528 86.2344 435.528 86.0187C435.528 85.8029 435.353 85.6281 435.138 85.6281C434.922 85.6281 434.747 85.8029 434.747 86.0187C434.747 86.2344 434.922 86.4093 435.138 86.4093Z" fill="white"/>
<path opacity="0.4" d="M505.453 16.094C505.669 16.094 505.844 15.9191 505.844 15.7034C505.844 15.4876 505.669 15.3127 505.453 15.3127C505.237 15.3127 505.062 15.4876 505.062 15.7034C505.062 15.9191 505.237 16.094 505.453 16.094Z" fill="white"/>
<path d="M427.325 141.099C427.54 141.099 427.715 140.924 427.715 140.708C427.715 140.493 427.54 140.318 427.325 140.318C427.109 140.318 426.934 140.493 426.934 140.708C426.934 140.924 427.109 141.099 427.325 141.099Z" fill="white"/>
<path d="M544.518 94.2222C544.733 94.2222 544.908 94.0473 544.908 93.8316C544.908 93.6158 544.733 93.4409 544.518 93.4409C544.302 93.4409 544.127 93.6158 544.127 93.8316C544.127 94.0473 544.302 94.2222 544.518 94.2222Z" fill="white"/>
<path d="M560.143 86.4093C560.359 86.4093 560.534 86.2344 560.534 86.0187C560.534 85.8029 560.359 85.6281 560.143 85.6281C559.927 85.6281 559.752 85.8029 559.752 86.0187C559.752 86.2344 559.927 86.4093 560.143 86.4093Z" fill="white"/>
<path d="M567.956 16.094C568.172 16.094 568.347 15.9191 568.347 15.7034C568.347 15.4876 568.172 15.3127 567.956 15.3127C567.74 15.3127 567.565 15.4876 567.565 15.7034C567.565 15.9191 567.74 16.094 567.956 16.094Z" fill="white"/>
<path opacity="0.5" d="M457.014 23.9068C457.229 23.9068 457.404 23.7319 457.404 23.5161C457.404 23.3004 457.229 23.1255 457.014 23.1255C456.798 23.1255 456.623 23.3004 456.623 23.5161C456.623 23.7319 456.798 23.9068 457.014 23.9068Z" fill="white"/>
<path opacity="0.4" d="M362.478 78.5965C362.694 78.5965 362.869 78.4216 362.869 78.2058C362.869 77.9901 362.694 77.8152 362.478 77.8152C362.262 77.8152 362.087 77.9901 362.087 78.2058C362.087 78.4216 362.262 78.5965 362.478 78.5965Z" fill="white"/>
<path d="M260.13 164.537C260.346 164.537 260.521 164.362 260.521 164.147C260.521 163.931 260.346 163.756 260.13 163.756C259.914 163.756 259.739 163.931 259.739 164.147C259.739 164.362 259.914 164.537 260.13 164.537Z" fill="white"/>
<path d="M581.238 67.6585C581.454 67.6585 581.628 67.4836 581.628 67.2678C581.628 67.0521 581.454 66.8772 581.238 66.8772C581.022 66.8772 580.847 67.0521 580.847 67.2678C580.847 67.4836 581.022 67.6585 581.238 67.6585Z" fill="white"/>
<path d="M196.846 250.478C197.061 250.478 197.236 250.303 197.236 250.088C197.236 249.872 197.061 249.697 196.846 249.697C196.63 249.697 196.455 249.872 196.455 250.088C196.455 250.303 196.63 250.478 196.846 250.478Z" fill="white"/>
</g>
<g style="mix-blend-mode:overlay" filter="url(#filter1_f_1_72)">
<path opacity="0.1" d="M-51.2119 170.608L278.108 143.263L289.413 832.868L-51.2119 170.608Z" fill="#BDFFDF"/>
</g>
<g style="mix-blend-mode:overlay" filter="url(#filter2_f_1_72)">
<path opacity="0.1" d="M1196.84 263.58L867.524 236.235L856.219 925.84L1196.84 263.58Z" fill="#FFBDE8"/>
</g>
<g opacity="0.2" filter="url(#filter3_f_1_72)">
<path d="M533.97 548.146C533.97 537.79 525.575 529.395 515.22 529.395C504.864 529.395 496.469 537.79 496.469 548.146V554.396C496.469 564.752 504.864 573.147 515.22 573.147C525.575 573.147 533.97 564.752 533.97 554.396V548.146Z" fill="#5E6AD2"/>
</g>
</g>
<defs>
<filter id="filter0_f_1_72" x="0.978516" y="-10.625" width="1155.05" height="848" filterUnits="userSpaceOnUse" color-interpolation-filters="sRGB">
<feFlood flood-opacity="0" result="BackgroundImageFix"/>
<feBlend mode="normal" in="SourceGraphic" in2="BackgroundImageFix" result="shape"/>
<feGaussianBlur stdDeviation="7.5" result="effect1_foregroundBlur_1_72"/>
</filter>
<filter id="filter1_f_1_72" x="-179.212" y="15.2632" width="596.625" height="945.604" filterUnits="userSpaceOnUse" color-interpolation-filters="sRGB">
<feFlood flood-opacity="0" result="BackgroundImageFix"/>
<feBlend mode="normal" in="SourceGraphic" in2="BackgroundImageFix" result="shape"/>
<feGaussianBlur stdDeviation="64" result="effect1_foregroundBlur_1_72"/>
</filter>
<filter id="filter2_f_1_72" x="728.219" y="108.235" width="596.625" height="945.604" filterUnits="userSpaceOnUse" color-interpolation-filters="sRGB">
<feFlood flood-opacity="0" result="BackgroundImageFix"/>
<feBlend mode="normal" in="SourceGraphic" in2="BackgroundImageFix" result="shape"/>
<feGaussianBlur stdDeviation="64" result="effect1_foregroundBlur_1_72"/>
</filter>
<filter id="filter3_f_1_72" x="420.469" y="453.395" width="189.501" height="195.752" filterUnits="userSpaceOnUse" color-interpolation-filters="sRGB">
<feFlood flood-opacity="0" result="BackgroundImageFix"/>
<feBlend mode="normal" in="SourceGraphic" in2="BackgroundImageFix" result="shape"/>
<feGaussianBlur stdDeviation="38" result="effect1_foregroundBlur_1_72"/>
</filter>
<clipPath id="clip0_1_72">
<rect width="1125.05" height="818" fill="white" transform="translate(15.9785 4.375)"/>
</clipPath>
</defs>
</svg>
