<svg width="1425" height="709" viewBox="0 0 1425 709" fill="none" xmlns="http://www.w3.org/2000/svg">
<g clip-path="url(#clip0_1_957)">
<g opacity="0.4">
<path opacity="0.4" d="M585.341 309.124C585.068 309.124 584.846 308.903 584.846 308.629C584.846 308.356 585.068 308.135 585.341 308.135C585.614 308.135 585.836 308.356 585.836 308.629C585.836 308.903 585.614 309.124 585.341 309.124Z" fill="white"/>
<path d="M305.293 228.968C305.02 228.968 304.798 228.747 304.798 228.473C304.798 228.2 305.02 227.979 305.293 227.979C305.566 227.979 305.788 228.2 305.788 228.473C305.788 228.747 305.566 228.968 305.293 228.968Z" fill="white"/>
<path d="M1072.21 540.686C1071.94 540.686 1071.71 540.465 1071.71 540.191C1071.71 539.918 1071.94 539.697 1072.21 539.697C1072.48 539.697 1072.7 539.918 1072.7 540.191C1072.7 540.465 1072.48 540.686 1072.21 540.686Z" fill="white"/>
<path d="M496.28 319.02C496.006 319.02 495.785 318.799 495.785 318.525C495.785 318.252 496.006 318.031 496.28 318.031C496.553 318.031 496.774 318.252 496.774 318.525C496.774 318.799 496.553 319.02 496.28 319.02Z" fill="white"/>
<path d="M216.232 238.864C215.959 238.864 215.737 238.642 215.737 238.369C215.737 238.096 215.959 237.874 216.232 237.874C216.505 237.874 216.727 238.096 216.727 238.369C216.727 238.642 216.505 238.864 216.232 238.864Z" fill="white"/>
<path d="M983.148 550.582C982.875 550.582 982.653 550.361 982.653 550.087C982.653 549.814 982.875 549.593 983.148 549.593C983.421 549.593 983.643 549.814 983.643 550.087C983.643 550.361 983.421 550.582 983.148 550.582Z" fill="white"/>
<path d="M407.219 269.541C406.945 269.541 406.724 269.32 406.724 269.046C406.724 268.773 406.945 268.552 407.219 268.552C407.492 268.552 407.713 268.773 407.713 269.046C407.713 269.32 407.492 269.541 407.219 269.541Z" fill="white"/>
<path opacity="0.5" d="M127.17 189.385C126.897 189.385 126.675 189.163 126.675 188.89C126.675 188.617 126.897 188.395 127.17 188.395C127.444 188.395 127.665 188.617 127.665 188.89C127.665 189.163 127.444 189.385 127.17 189.385Z" fill="white"/>
<path d="M894.087 501.103C893.813 501.103 893.592 500.881 893.592 500.608C893.592 500.335 893.813 500.113 894.087 500.113C894.36 500.113 894.582 500.335 894.582 500.608C894.582 500.881 894.36 501.103 894.087 501.103Z" fill="white"/>
<path d="M318.157 180.479C317.884 180.479 317.662 180.257 317.662 179.984C317.662 179.711 317.884 179.489 318.157 179.489C318.43 179.489 318.652 179.711 318.652 179.984C318.652 180.257 318.43 180.479 318.157 180.479Z" fill="white"/>
<path opacity="0.5" d="M38.1097 100.323C37.8364 100.323 37.6149 100.101 37.6149 99.8279C37.6149 99.5547 37.8364 99.3331 38.1097 99.3331C38.383 99.3331 38.6045 99.5547 38.6045 99.8279C38.6045 100.101 38.383 100.323 38.1097 100.323Z" fill="white"/>
<path opacity="0.4" d="M805.025 412.041C804.752 412.041 804.53 411.819 804.53 411.546C804.53 411.273 804.752 411.051 805.025 411.051C805.298 411.051 805.52 411.273 805.52 411.546C805.52 411.819 805.298 412.041 805.025 412.041Z" fill="white"/>
<path d="M347.845 111.208C347.571 111.208 347.35 110.987 347.35 110.713C347.35 110.44 347.571 110.219 347.845 110.219C348.118 110.219 348.339 110.44 348.339 110.713C348.339 110.987 348.118 111.208 347.845 111.208Z" fill="white"/>
<path opacity="0.4" d="M67.7967 31.052C67.5234 31.052 67.3019 30.8304 67.3019 30.5572C67.3019 30.2839 67.5234 30.0624 67.7967 30.0624C68.07 30.0624 68.2915 30.2839 68.2915 30.5572C68.2915 30.8304 68.07 31.052 67.7967 31.052Z" fill="white"/>
<path opacity="0.4" d="M436.906 81.5206C436.632 81.5206 436.411 81.2991 436.411 81.0258C436.411 80.7525 436.632 80.531 436.906 80.531C437.179 80.531 437.4 80.7525 437.4 81.0258C437.4 81.2991 437.179 81.5206 436.906 81.5206Z" fill="white"/>
<path d="M156.857 1.36458C156.584 1.36458 156.362 1.14306 156.362 0.86979C156.362 0.596525 156.584 0.375 156.857 0.375C157.131 0.375 157.352 0.596525 157.352 0.86979C157.352 1.14306 157.131 1.36458 156.857 1.36458Z" fill="white"/>
<path d="M476.489 210.166C476.215 210.166 475.994 209.945 475.994 209.671C475.994 209.398 476.215 209.177 476.489 209.177C476.762 209.177 476.983 209.398 476.983 209.671C476.983 209.945 476.762 210.166 476.489 210.166Z" fill="white"/>
<path d="M196.44 130.01C196.167 130.01 195.945 129.789 195.945 129.515C195.945 129.242 196.167 129.021 196.44 129.021C196.714 129.021 196.935 129.242 196.935 129.515C196.935 129.789 196.714 130.01 196.44 130.01Z" fill="white"/>
<path d="M417.114 338.812C416.841 338.812 416.619 338.59 416.619 338.317C416.619 338.044 416.841 337.822 417.114 337.822C417.387 337.822 417.609 338.044 417.609 338.317C417.609 338.59 417.387 338.812 417.114 338.812Z" fill="white"/>
<path d="M137.066 258.656C136.793 258.656 136.571 258.434 136.571 258.161C136.571 257.888 136.793 257.666 137.066 257.666C137.34 257.666 137.561 257.888 137.561 258.161C137.561 258.434 137.34 258.656 137.066 258.656Z" fill="white"/>
<path d="M903.982 570.374C903.709 570.374 903.487 570.152 903.487 569.879C903.487 569.606 903.709 569.384 903.982 569.384C904.256 569.384 904.477 569.606 904.477 569.879C904.477 570.152 904.256 570.374 903.982 570.374Z" fill="white"/>
<path d="M268.679 279.437C268.406 279.437 268.184 279.215 268.184 278.942C268.184 278.669 268.406 278.447 268.679 278.447C268.952 278.447 269.174 278.669 269.174 278.942C269.174 279.215 268.952 279.437 268.679 279.437Z" fill="white"/>
<path d="M755.547 510.999C755.274 510.999 755.052 510.777 755.052 510.504C755.052 510.231 755.274 510.009 755.547 510.009C755.82 510.009 756.042 510.231 756.042 510.504C756.042 510.777 755.82 510.999 755.547 510.999Z" fill="white"/>
<path d="M248.888 269.541C248.614 269.541 248.393 269.32 248.393 269.046C248.393 268.773 248.614 268.552 248.888 268.552C249.161 268.552 249.382 268.773 249.382 269.046C249.382 269.32 249.161 269.541 248.888 269.541Z" fill="white"/>
<path d="M735.756 501.103C735.482 501.103 735.261 500.881 735.261 500.608C735.261 500.335 735.482 500.113 735.756 500.113C736.029 500.113 736.25 500.335 736.25 500.608C736.25 500.881 736.029 501.103 735.756 501.103Z" fill="white"/>
<path d="M238.992 180.479C238.718 180.479 238.497 180.257 238.497 179.984C238.497 179.711 238.718 179.489 238.992 179.489C239.265 179.489 239.486 179.711 239.486 179.984C239.486 180.257 239.265 180.479 238.992 180.479Z" fill="white"/>
<path d="M725.86 412.041C725.586 412.041 725.365 411.819 725.365 411.546C725.365 411.273 725.586 411.051 725.86 411.051C726.133 411.051 726.354 411.273 726.354 411.546C726.354 411.819 726.133 412.041 725.86 412.041Z" fill="white"/>
<path opacity="0.4" d="M259.773 140.895C259.5 140.895 259.278 140.674 259.278 140.401C259.278 140.127 259.5 139.906 259.773 139.906C260.046 139.906 260.268 140.127 260.268 140.401C260.268 140.674 260.046 140.895 259.773 140.895Z" fill="white"/>
<path d="M746.641 372.457C746.368 372.457 746.146 372.236 746.146 371.963C746.146 371.689 746.368 371.468 746.641 371.468C746.914 371.468 747.136 371.689 747.136 371.963C747.136 372.236 746.914 372.457 746.641 372.457Z" fill="white"/>
<path opacity="0.4" d="M379.511 190.375C379.237 190.375 379.016 190.153 379.016 189.88C379.016 189.607 379.237 189.385 379.511 189.385C379.784 189.385 380.005 189.607 380.005 189.88C380.005 190.153 379.784 190.375 379.511 190.375Z" fill="white"/>
<path d="M99.4622 110.218C99.189 110.218 98.9674 109.997 98.9674 109.724C98.9674 109.45 99.189 109.229 99.4622 109.229C99.7355 109.229 99.957 109.45 99.957 109.724C99.957 109.997 99.7355 110.218 99.4622 110.218Z" fill="white"/>
<path opacity="0.5" d="M866.379 421.936C866.105 421.936 865.884 421.715 865.884 421.442C865.884 421.168 866.105 420.947 866.379 420.947C866.652 420.947 866.874 421.168 866.874 421.442C866.874 421.715 866.652 421.936 866.379 421.936Z" fill="white"/>
<path opacity="0.5" d="M499.248 259.645C498.975 259.645 498.754 259.424 498.754 259.15C498.754 258.877 498.975 258.656 499.248 258.656C499.522 258.656 499.743 258.877 499.743 259.15C499.743 259.424 499.522 259.645 499.248 259.645Z" fill="white"/>
<path d="M219.201 179.489C218.927 179.489 218.706 179.268 218.706 178.994C218.706 178.721 218.927 178.5 219.201 178.5C219.474 178.5 219.695 178.721 219.695 178.994C219.695 179.268 219.474 179.489 219.201 179.489Z" fill="white"/>
<path opacity="0.4" d="M986.117 491.207C985.843 491.207 985.622 490.986 985.622 490.712C985.622 490.439 985.843 490.218 986.117 490.218C986.39 490.218 986.611 490.439 986.611 490.712C986.611 490.986 986.39 491.207 986.117 491.207Z" fill="white"/>
<path d="M628.882 368.499C628.609 368.499 628.387 368.278 628.387 368.004C628.387 367.731 628.609 367.51 628.882 367.51C629.155 367.51 629.377 367.731 629.377 368.004C629.377 368.278 629.155 368.499 628.882 368.499Z" fill="white"/>
<path d="M348.834 288.343C348.561 288.343 348.339 288.122 348.339 287.848C348.339 287.575 348.561 287.354 348.834 287.354C349.107 287.354 349.329 287.575 349.329 287.848C349.329 288.122 349.107 288.343 348.834 288.343Z" fill="white"/>
<path d="M1115.75 600.061C1115.48 600.061 1115.26 599.84 1115.26 599.566C1115.26 599.293 1115.48 599.072 1115.75 599.072C1116.02 599.072 1116.25 599.293 1116.25 599.566C1116.25 599.84 1116.02 600.061 1115.75 600.061Z" fill="white"/>
<path d="M709.037 477.353C708.764 477.353 708.542 477.131 708.542 476.858C708.542 476.585 708.764 476.363 709.037 476.363C709.31 476.363 709.532 476.585 709.532 476.858C709.532 477.131 709.31 477.353 709.037 477.353Z" fill="white"/>
<path d="M428.989 397.197C428.716 397.197 428.494 396.975 428.494 396.702C428.494 396.429 428.716 396.207 428.989 396.207C429.262 396.207 429.484 396.429 429.484 396.702C429.484 396.975 429.262 397.197 428.989 397.197Z" fill="white"/>
<path d="M1195.91 708.915C1195.63 708.915 1195.41 708.693 1195.41 708.42C1195.41 708.147 1195.63 707.925 1195.91 707.925C1196.18 707.925 1196.4 708.147 1196.4 708.42C1196.4 708.693 1196.18 708.915 1195.91 708.915Z" fill="white"/>
</g>
</g>
<defs>
<clipPath id="clip0_1_957">
<rect width="1424.98" height="708.54" fill="white" transform="translate(0.0107422 0.375)"/>
</clipPath>
</defs>
</svg>
