<svg width="1425" height="978" viewBox="0 0 1425 978" fill="none" xmlns="http://www.w3.org/2000/svg">
<g opacity="0.4" clip-path="url(#clip0_1_1248)">
<g opacity="0.4">
<path opacity="0.4" d="M553.676 309.047C553.402 309.047 553.181 308.826 553.181 308.553C553.181 308.279 553.402 308.058 553.676 308.058C553.949 308.058 554.17 308.279 554.17 308.553C554.17 308.826 553.949 309.047 553.676 309.047Z" fill="white"/>
<path d="M273.624 228.891C273.351 228.891 273.129 228.669 273.129 228.396C273.129 228.123 273.351 227.901 273.624 227.901C273.897 227.901 274.119 228.123 274.119 228.396C274.119 228.669 273.897 228.891 273.624 228.891Z" fill="white"/>
<path d="M1040.55 540.61C1040.28 540.61 1040.06 540.389 1040.06 540.115C1040.06 539.842 1040.28 539.621 1040.55 539.621C1040.82 539.621 1041.05 539.842 1041.05 540.115C1041.05 540.389 1040.82 540.61 1040.55 540.61Z" fill="white"/>
<path d="M464.613 318.943C464.34 318.943 464.118 318.722 464.118 318.448C464.118 318.175 464.34 317.954 464.613 317.954C464.886 317.954 465.108 318.175 465.108 318.448C465.108 318.722 464.886 318.943 464.613 318.943Z" fill="white"/>
<path d="M184.561 238.787C184.288 238.787 184.067 238.565 184.067 238.292C184.067 238.019 184.288 237.797 184.561 237.797C184.835 237.797 185.056 238.019 185.056 238.292C185.056 238.565 184.835 238.787 184.561 238.787Z" fill="white"/>
<path d="M951.488 550.506C951.215 550.506 950.993 550.285 950.993 550.011C950.993 549.738 951.215 549.517 951.488 549.517C951.761 549.517 951.983 549.738 951.983 550.011C951.983 550.285 951.761 550.506 951.488 550.506Z" fill="white"/>
<path d="M375.551 269.464C375.277 269.464 375.056 269.242 375.056 268.969C375.056 268.696 375.277 268.474 375.551 268.474C375.824 268.474 376.045 268.696 376.045 268.969C376.045 269.242 375.824 269.464 375.551 269.464Z" fill="white"/>
<path opacity="0.5" d="M95.4993 189.308C95.2261 189.308 95.0046 189.086 95.0046 188.813C95.0046 188.54 95.2261 188.318 95.4993 188.318C95.7726 188.318 95.9941 188.54 95.9941 188.813C95.9941 189.086 95.7726 189.308 95.4993 189.308Z" fill="white"/>
<path d="M862.426 501.027C862.152 501.027 861.931 500.805 861.931 500.532C861.931 500.259 862.152 500.037 862.426 500.037C862.699 500.037 862.92 500.259 862.92 500.532C862.92 500.805 862.699 501.027 862.426 501.027Z" fill="white"/>
<path d="M286.488 180.401C286.215 180.401 285.993 180.18 285.993 179.907C285.993 179.633 286.215 179.412 286.488 179.412C286.761 179.412 286.983 179.633 286.983 179.907C286.983 180.18 286.761 180.401 286.488 180.401Z" fill="white"/>
<path opacity="0.5" d="M6.43685 100.245C6.16358 100.245 5.94206 100.023 5.94206 99.7502C5.94206 99.4769 6.16358 99.2554 6.43685 99.2554C6.71011 99.2554 6.93164 99.4769 6.93164 99.7502C6.93164 100.023 6.71011 100.245 6.43685 100.245Z" fill="white"/>
<path opacity="0.4" d="M773.363 411.964C773.09 411.964 772.868 411.743 772.868 411.469C772.868 411.196 773.09 410.975 773.363 410.975C773.636 410.975 773.858 411.196 773.858 411.469C773.858 411.743 773.636 411.964 773.363 411.964Z" fill="white"/>
<path d="M316.176 111.13C315.902 111.13 315.681 110.909 315.681 110.636C315.681 110.362 315.902 110.141 316.176 110.141C316.449 110.141 316.67 110.362 316.67 110.636C316.67 110.909 316.449 111.13 316.176 111.13Z" fill="white"/>
<path opacity="0.4" d="M36.1243 30.974C35.8511 30.974 35.6296 30.7524 35.6296 30.4792C35.6296 30.2059 35.8511 29.9844 36.1243 29.9844C36.3976 29.9844 36.6191 30.2059 36.6191 30.4792C36.6191 30.7524 36.3976 30.974 36.1243 30.974Z" fill="white"/>
<path opacity="0.4" d="M405.238 81.443C404.965 81.443 404.743 81.2214 404.743 80.9482C404.743 80.6749 404.965 80.4534 405.238 80.4534C405.511 80.4534 405.733 80.6749 405.733 80.9482C405.733 81.2214 405.511 81.443 405.238 81.443Z" fill="white"/>
<path d="M125.186 1.28646C124.913 1.28646 124.692 1.06493 124.692 0.791668C124.692 0.518401 124.913 0.296875 125.186 0.296875C125.46 0.296875 125.681 0.518401 125.681 0.791668C125.681 1.06493 125.46 1.28646 125.186 1.28646Z" fill="white"/>
<path d="M444.822 210.089C444.548 210.089 444.327 209.867 444.327 209.594C444.327 209.321 444.548 209.099 444.822 209.099C445.095 209.099 445.316 209.321 445.316 209.594C445.316 209.867 445.095 210.089 444.822 210.089Z" fill="white"/>
<path d="M164.769 129.932C164.496 129.932 164.275 129.711 164.275 129.438C164.275 129.164 164.496 128.943 164.769 128.943C165.043 128.943 165.264 129.164 165.264 129.438C165.264 129.711 165.043 129.932 164.769 129.932Z" fill="white"/>
<path d="M385.447 338.735C385.173 338.735 384.952 338.513 384.952 338.24C384.952 337.967 385.173 337.745 385.447 337.745C385.72 337.745 385.941 337.967 385.941 338.24C385.941 338.513 385.72 338.735 385.447 338.735Z" fill="white"/>
<path d="M105.394 258.578C105.121 258.578 104.9 258.357 104.9 258.084C104.9 257.81 105.121 257.589 105.394 257.589C105.668 257.589 105.889 257.81 105.889 258.084C105.889 258.357 105.668 258.578 105.394 258.578Z" fill="white"/>
<path d="M872.322 570.298C872.048 570.298 871.827 570.076 871.827 569.803C871.827 569.53 872.048 569.308 872.322 569.308C872.595 569.308 872.816 569.53 872.816 569.803C872.816 570.076 872.595 570.298 872.322 570.298Z" fill="white"/>
<path d="M237.009 279.36C236.736 279.36 236.514 279.138 236.514 278.865C236.514 278.592 236.736 278.37 237.009 278.37C237.282 278.37 237.504 278.592 237.504 278.865C237.504 279.138 237.282 279.36 237.009 279.36Z" fill="white"/>
<path d="M723.884 510.923C723.611 510.923 723.389 510.701 723.389 510.428C723.389 510.155 723.611 509.933 723.884 509.933C724.157 509.933 724.379 510.155 724.379 510.428C724.379 510.701 724.157 510.923 723.884 510.923Z" fill="white"/>
<path d="M217.218 269.464C216.944 269.464 216.723 269.242 216.723 268.969C216.723 268.696 216.944 268.474 217.218 268.474C217.491 268.474 217.712 268.696 217.712 268.969C217.712 269.242 217.491 269.464 217.218 269.464Z" fill="white"/>
<path d="M704.093 501.027C703.819 501.027 703.598 500.805 703.598 500.532C703.598 500.259 703.819 500.037 704.093 500.037C704.366 500.037 704.587 500.259 704.587 500.532C704.587 500.805 704.366 501.027 704.093 501.027Z" fill="white"/>
<path d="M207.322 180.401C207.048 180.401 206.827 180.18 206.827 179.907C206.827 179.633 207.048 179.412 207.322 179.412C207.595 179.412 207.816 179.633 207.816 179.907C207.816 180.18 207.595 180.401 207.322 180.401Z" fill="white"/>
<path d="M694.197 411.964C693.923 411.964 693.702 411.743 693.702 411.469C693.702 411.196 693.923 410.975 694.197 410.975C694.47 410.975 694.691 411.196 694.691 411.469C694.691 411.743 694.47 411.964 694.197 411.964Z" fill="white"/>
<path opacity="0.4" d="M228.103 140.818C227.83 140.818 227.608 140.596 227.608 140.323C227.608 140.05 227.83 139.828 228.103 139.828C228.376 139.828 228.598 140.05 228.598 140.323C228.598 140.596 228.376 140.818 228.103 140.818Z" fill="white"/>
<path d="M714.978 372.381C714.705 372.381 714.483 372.159 714.483 371.886C714.483 371.613 714.705 371.391 714.978 371.391C715.251 371.391 715.473 371.613 715.473 371.886C715.473 372.159 715.251 372.381 714.978 372.381Z" fill="white"/>
<path opacity="0.4" d="M347.843 190.297C347.569 190.297 347.348 190.076 347.348 189.802C347.348 189.529 347.569 189.308 347.843 189.308C348.116 189.308 348.337 189.529 348.337 189.802C348.337 190.076 348.116 190.297 347.843 190.297Z" fill="white"/>
<path d="M67.7909 110.141C67.5176 110.141 67.2961 109.919 67.2961 109.646C67.2961 109.373 67.5176 109.151 67.7909 109.151C68.0641 109.151 68.2856 109.373 68.2856 109.646C68.2856 109.919 68.0641 110.141 67.7909 110.141Z" fill="white"/>
<path opacity="0.5" d="M834.718 421.86C834.444 421.86 834.223 421.639 834.223 421.365C834.223 421.092 834.444 420.871 834.718 420.871C834.991 420.871 835.212 421.092 835.212 421.365C835.212 421.639 834.991 421.86 834.718 421.86Z" fill="white"/>
<path opacity="0.5" d="M467.582 259.568C467.309 259.568 467.087 259.347 467.087 259.073C467.087 258.8 467.309 258.579 467.582 258.579C467.855 258.579 468.077 258.8 468.077 259.073C468.077 259.347 467.855 259.568 467.582 259.568Z" fill="white"/>
<path d="M187.53 179.412C187.257 179.412 187.035 179.19 187.035 178.917C187.035 178.644 187.257 178.422 187.53 178.422C187.803 178.422 188.025 178.644 188.025 178.917C188.025 179.19 187.803 179.412 187.53 179.412Z" fill="white"/>
<path opacity="0.4" d="M954.457 491.131C954.184 491.131 953.962 490.91 953.962 490.636C953.962 490.363 954.184 490.142 954.457 490.142C954.73 490.142 954.952 490.363 954.952 490.636C954.952 490.91 954.73 491.131 954.457 491.131Z" fill="white"/>
<path d="M597.218 368.422C596.944 368.422 596.723 368.201 596.723 367.928C596.723 367.654 596.944 367.433 597.218 367.433C597.491 367.433 597.712 367.654 597.712 367.928C597.712 368.201 597.491 368.422 597.218 368.422Z" fill="white"/>
<path d="M317.165 288.266C316.892 288.266 316.671 288.045 316.671 287.771C316.671 287.498 316.892 287.277 317.165 287.277C317.439 287.277 317.66 287.498 317.66 287.771C317.66 288.045 317.439 288.266 317.165 288.266Z" fill="white"/>
<path d="M1084.09 599.985C1083.82 599.985 1083.6 599.764 1083.6 599.491C1083.6 599.217 1083.82 598.996 1084.09 598.996C1084.37 598.996 1084.59 599.217 1084.59 599.491C1084.59 599.764 1084.37 599.985 1084.09 599.985Z" fill="white"/>
<path d="M677.374 477.277C677.101 477.277 676.879 477.055 676.879 476.782C676.879 476.509 677.101 476.287 677.374 476.287C677.647 476.287 677.869 476.509 677.869 476.782C677.869 477.055 677.647 477.277 677.374 477.277Z" fill="white"/>
<path d="M397.322 397.12C397.048 397.12 396.827 396.899 396.827 396.626C396.827 396.352 397.048 396.131 397.322 396.131C397.595 396.131 397.816 396.352 397.816 396.626C397.816 396.899 397.595 397.12 397.322 397.12Z" fill="white"/>
<path d="M1164.25 708.84C1163.98 708.84 1163.75 708.618 1163.75 708.345C1163.75 708.072 1163.98 707.85 1164.25 707.85C1164.52 707.85 1164.74 708.072 1164.74 708.345C1164.74 708.618 1164.52 708.84 1164.25 708.84Z" fill="white"/>
</g>
<g opacity="0.4">
<path opacity="0.4" d="M807.999 578.215C808.272 578.215 808.493 577.993 808.493 577.72C808.493 577.447 808.272 577.225 807.999 577.225C807.725 577.225 807.504 577.447 807.504 577.72C807.504 577.993 807.725 578.215 807.999 578.215Z" fill="white"/>
<path d="M1088.05 498.058C1088.32 498.058 1088.55 497.837 1088.55 497.563C1088.55 497.29 1088.32 497.069 1088.05 497.069C1087.78 497.069 1087.56 497.29 1087.56 497.563C1087.56 497.837 1087.78 498.058 1088.05 498.058Z" fill="white"/>
<path d="M321.124 809.778C321.397 809.778 321.618 809.556 321.618 809.283C321.618 809.01 321.397 808.788 321.124 808.788C320.85 808.788 320.629 809.01 320.629 809.283C320.629 809.556 320.85 809.778 321.124 809.778Z" fill="white"/>
<path d="M897.061 588.11C897.334 588.11 897.556 587.889 897.556 587.616C897.556 587.342 897.334 587.121 897.061 587.121C896.788 587.121 896.566 587.342 896.566 587.616C896.566 587.889 896.788 588.11 897.061 588.11Z" fill="white"/>
<path d="M1177.11 507.954C1177.39 507.954 1177.61 507.733 1177.61 507.459C1177.61 507.186 1177.39 506.965 1177.11 506.965C1176.84 506.965 1176.62 507.186 1176.62 507.459C1176.62 507.733 1176.84 507.954 1177.11 507.954Z" fill="white"/>
<path d="M410.186 819.673C410.459 819.673 410.681 819.452 410.681 819.178C410.681 818.905 410.459 818.684 410.186 818.684C409.913 818.684 409.691 818.905 409.691 819.178C409.691 819.452 409.913 819.673 410.186 819.673Z" fill="white"/>
<path d="M986.124 538.631C986.397 538.631 986.618 538.41 986.618 538.136C986.618 537.863 986.397 537.642 986.124 537.642C985.85 537.642 985.629 537.863 985.629 538.136C985.629 538.41 985.85 538.631 986.124 538.631Z" fill="white"/>
<path opacity="0.5" d="M1266.18 458.475C1266.45 458.475 1266.67 458.253 1266.67 457.98C1266.67 457.707 1266.45 457.485 1266.18 457.485C1265.9 457.485 1265.68 457.707 1265.68 457.98C1265.68 458.253 1265.9 458.475 1266.18 458.475Z" fill="white"/>
<path d="M499.249 770.194C499.522 770.194 499.743 769.973 499.743 769.699C499.743 769.426 499.522 769.205 499.249 769.205C498.975 769.205 498.754 769.426 498.754 769.699C498.754 769.973 498.975 770.194 499.249 770.194Z" fill="white"/>
<path d="M1075.19 449.569C1075.46 449.569 1075.68 449.347 1075.68 449.074C1075.68 448.801 1075.46 448.579 1075.19 448.579C1074.91 448.579 1074.69 448.801 1074.69 449.074C1074.69 449.347 1074.91 449.569 1075.19 449.569Z" fill="white"/>
<path opacity="0.5" d="M1355.24 369.412C1355.51 369.412 1355.73 369.191 1355.73 368.917C1355.73 368.644 1355.51 368.423 1355.24 368.423C1354.97 368.423 1354.74 368.644 1354.74 368.917C1354.74 369.191 1354.97 369.412 1355.24 369.412Z" fill="white"/>
<path opacity="0.4" d="M588.311 681.131C588.584 681.131 588.806 680.91 588.806 680.637C588.806 680.363 588.584 680.142 588.311 680.142C588.038 680.142 587.816 680.363 587.816 680.637C587.816 680.91 588.038 681.131 588.311 681.131Z" fill="white"/>
<path d="M1045.5 380.298C1045.77 380.298 1045.99 380.076 1045.99 379.803C1045.99 379.53 1045.77 379.308 1045.5 379.308C1045.23 379.308 1045 379.53 1045 379.803C1045 380.076 1045.23 380.298 1045.5 380.298Z" fill="white"/>
<path opacity="0.4" d="M1325.55 300.141C1325.82 300.141 1326.05 299.92 1326.05 299.646C1326.05 299.373 1325.82 299.152 1325.55 299.152C1325.28 299.152 1325.06 299.373 1325.06 299.646C1325.06 299.92 1325.28 300.141 1325.55 300.141Z" fill="white"/>
<path opacity="0.4" d="M956.436 350.61C956.709 350.61 956.931 350.389 956.931 350.115C956.931 349.842 956.709 349.621 956.436 349.621C956.163 349.621 955.941 349.842 955.941 350.115C955.941 350.389 956.163 350.61 956.436 350.61Z" fill="white"/>
<path d="M1236.49 270.454C1236.76 270.454 1236.98 270.232 1236.98 269.959C1236.98 269.686 1236.76 269.464 1236.49 269.464C1236.22 269.464 1235.99 269.686 1235.99 269.959C1235.99 270.232 1236.22 270.454 1236.49 270.454Z" fill="white"/>
<path d="M916.853 479.256C917.126 479.256 917.348 479.035 917.348 478.761C917.348 478.488 917.126 478.267 916.853 478.267C916.58 478.267 916.358 478.488 916.358 478.761C916.358 479.035 916.58 479.256 916.853 479.256Z" fill="white"/>
<path d="M1196.9 399.1C1197.18 399.1 1197.4 398.878 1197.4 398.605C1197.4 398.332 1197.18 398.11 1196.9 398.11C1196.63 398.11 1196.41 398.332 1196.41 398.605C1196.41 398.878 1196.63 399.1 1196.9 399.1Z" fill="white"/>
<path d="M976.228 607.902C976.501 607.902 976.723 607.681 976.723 607.407C976.723 607.134 976.501 606.913 976.228 606.913C975.955 606.913 975.733 607.134 975.733 607.407C975.733 607.681 975.955 607.902 976.228 607.902Z" fill="white"/>
<path d="M1256.28 527.746C1256.55 527.746 1256.77 527.524 1256.77 527.251C1256.77 526.978 1256.55 526.756 1256.28 526.756C1256.01 526.756 1255.79 526.978 1255.79 527.251C1255.79 527.524 1256.01 527.746 1256.28 527.746Z" fill="white"/>
<path d="M489.353 839.465C489.626 839.465 489.848 839.244 489.848 838.97C489.848 838.697 489.626 838.476 489.353 838.476C489.08 838.476 488.858 838.697 488.858 838.97C488.858 839.244 489.08 839.465 489.353 839.465Z" fill="white"/>
<path d="M1124.67 548.527C1124.94 548.527 1125.16 548.306 1125.16 548.032C1125.16 547.759 1124.94 547.538 1124.67 547.538C1124.39 547.538 1124.17 547.759 1124.17 548.032C1124.17 548.306 1124.39 548.527 1124.67 548.527Z" fill="white"/>
<path d="M1404.72 468.371C1404.99 468.371 1405.21 468.149 1405.21 467.876C1405.21 467.603 1404.99 467.381 1404.72 467.381C1404.44 467.381 1404.22 467.603 1404.22 467.876C1404.22 468.149 1404.44 468.371 1404.72 468.371Z" fill="white"/>
<path d="M637.791 780.09C638.064 780.09 638.285 779.869 638.285 779.595C638.285 779.322 638.064 779.101 637.791 779.101C637.517 779.101 637.296 779.322 637.296 779.595C637.296 779.869 637.517 780.09 637.791 780.09Z" fill="white"/>
<path d="M1144.46 538.631C1144.73 538.631 1144.95 538.41 1144.95 538.136C1144.95 537.863 1144.73 537.642 1144.46 537.642C1144.18 537.642 1143.96 537.863 1143.96 538.136C1143.96 538.41 1144.18 538.631 1144.46 538.631Z" fill="white"/>
<path d="M1424.51 458.475C1424.78 458.475 1425 458.253 1425 457.98C1425 457.707 1424.78 457.485 1424.51 457.485C1424.24 457.485 1424.01 457.707 1424.01 457.98C1424.01 458.253 1424.24 458.475 1424.51 458.475Z" fill="white"/>
<path d="M657.582 770.194C657.855 770.194 658.077 769.973 658.077 769.699C658.077 769.426 657.855 769.205 657.582 769.205C657.309 769.205 657.087 769.426 657.087 769.699C657.087 769.973 657.309 770.194 657.582 770.194Z" fill="white"/>
<path d="M1154.35 449.569C1154.63 449.569 1154.85 449.347 1154.85 449.074C1154.85 448.801 1154.63 448.579 1154.35 448.579C1154.08 448.579 1153.86 448.801 1153.86 449.074C1153.86 449.347 1154.08 449.569 1154.35 449.569Z" fill="white"/>
<path d="M667.478 681.131C667.751 681.131 667.973 680.91 667.973 680.637C667.973 680.363 667.751 680.142 667.478 680.142C667.205 680.142 666.983 680.363 666.983 680.637C666.983 680.91 667.205 681.131 667.478 681.131Z" fill="white"/>
<path opacity="0.4" d="M1133.57 409.985C1133.85 409.985 1134.07 409.764 1134.07 409.49C1134.07 409.217 1133.85 408.996 1133.57 408.996C1133.3 408.996 1133.08 409.217 1133.08 409.49C1133.08 409.764 1133.3 409.985 1133.57 409.985Z" fill="white"/>
<path d="M1413.62 329.829C1413.9 329.829 1414.12 329.607 1414.12 329.334C1414.12 329.061 1413.9 328.839 1413.62 328.839C1413.35 328.839 1413.13 329.061 1413.13 329.334C1413.13 329.607 1413.35 329.829 1413.62 329.829Z" fill="white"/>
<path d="M646.697 641.548C646.97 641.548 647.192 641.327 647.192 641.053C647.192 640.78 646.97 640.559 646.697 640.559C646.424 640.559 646.202 640.78 646.202 641.053C646.202 641.327 646.424 641.548 646.697 641.548Z" fill="white"/>
<path opacity="0.4" d="M1013.83 459.464C1014.11 459.464 1014.33 459.243 1014.33 458.97C1014.33 458.696 1014.11 458.475 1013.83 458.475C1013.56 458.475 1013.34 458.696 1013.34 458.97C1013.34 459.243 1013.56 459.464 1013.83 459.464Z" fill="white"/>
<path d="M1293.88 379.308C1294.16 379.308 1294.38 379.086 1294.38 378.813C1294.38 378.54 1294.16 378.318 1293.88 378.318C1293.61 378.318 1293.39 378.54 1293.39 378.813C1293.39 379.086 1293.61 379.308 1293.88 379.308Z" fill="white"/>
<path opacity="0.5" d="M526.957 691.027C527.23 691.027 527.452 690.806 527.452 690.533C527.452 690.259 527.23 690.038 526.957 690.038C526.684 690.038 526.462 690.259 526.462 690.533C526.462 690.806 526.684 691.027 526.957 691.027Z" fill="white"/>
<path opacity="0.5" d="M894.092 528.735C894.366 528.735 894.587 528.514 894.587 528.241C894.587 527.967 894.366 527.746 894.092 527.746C893.819 527.746 893.598 527.967 893.598 528.241C893.598 528.514 893.819 528.735 894.092 528.735Z" fill="white"/>
<path d="M1174.14 448.579C1174.42 448.579 1174.64 448.357 1174.64 448.084C1174.64 447.811 1174.42 447.589 1174.14 447.589C1173.87 447.589 1173.65 447.811 1173.65 448.084C1173.65 448.357 1173.87 448.579 1174.14 448.579Z" fill="white"/>
<path opacity="0.4" d="M407.217 760.298C407.491 760.298 407.712 760.077 407.712 759.803C407.712 759.53 407.491 759.309 407.217 759.309C406.944 759.309 406.723 759.53 406.723 759.803C406.723 760.077 406.944 760.298 407.217 760.298Z" fill="white"/>
<path d="M764.457 637.59C764.73 637.59 764.952 637.368 764.952 637.095C764.952 636.822 764.73 636.6 764.457 636.6C764.184 636.6 763.962 636.822 763.962 637.095C763.962 637.368 764.184 637.59 764.457 637.59Z" fill="white"/>
<path d="M1044.51 557.433C1044.78 557.433 1045 557.212 1045 556.939C1045 556.665 1044.78 556.444 1044.51 556.444C1044.24 556.444 1044.01 556.665 1044.01 556.939C1044.01 557.212 1044.24 557.433 1044.51 557.433Z" fill="white"/>
<path d="M277.582 869.153C277.855 869.153 278.077 868.931 278.077 868.658C278.077 868.385 277.855 868.163 277.582 868.163C277.309 868.163 277.087 868.385 277.087 868.658C277.087 868.931 277.309 869.153 277.582 869.153Z" fill="white"/>
<path d="M684.301 746.444C684.574 746.444 684.796 746.223 684.796 745.949C684.796 745.676 684.574 745.455 684.301 745.455C684.028 745.455 683.806 745.676 683.806 745.949C683.806 746.223 684.028 746.444 684.301 746.444Z" fill="white"/>
<path d="M964.353 666.288C964.626 666.288 964.848 666.066 964.848 665.793C964.848 665.52 964.626 665.298 964.353 665.298C964.08 665.298 963.858 665.52 963.858 665.793C963.858 666.066 964.08 666.288 964.353 666.288Z" fill="white"/>
<path d="M197.426 978.007C197.699 978.007 197.921 977.786 197.921 977.512C197.921 977.239 197.699 977.018 197.426 977.018C197.153 977.018 196.931 977.239 196.931 977.512C196.931 977.786 197.153 978.007 197.426 978.007Z" fill="white"/>
</g>
</g>
<defs>
<clipPath id="clip0_1_1248">
<rect width="1425" height="977.71" fill="white" transform="translate(0.00390625 0.296875)"/>
</clipPath>
</defs>
</svg>
