<svg width="1425" height="1357" viewBox="0 0 1425 1357" fill="none" xmlns="http://www.w3.org/2000/svg">
<g style="mix-blend-mode:overlay" clip-path="url(#clip0_1_1336)" filter="url(#filter0_f_1_1336)">
<g style="mix-blend-mode:overlay" opacity="0.7" filter="url(#filter1_f_1_1336)">
<path opacity="0.1" d="M-151.401 438.176L265.719 408.42L280.038 1158.83L-151.401 438.176Z" fill="#BDFFDF"/>
</g>
<g style="mix-blend-mode:overlay" filter="url(#filter2_f_1_1336)">
<path opacity="0.1" d="M-258.276 246.76L-25.2583 594.277L577.734 107.293L-258.276 246.76Z" fill="#BDFFDF"/>
</g>
<g style="mix-blend-mode:overlay" opacity="0.1" filter="url(#filter3_f_1_1336)">
<path d="M1514.5 483.972L1097.38 449.337L1083.06 1322.8L1514.5 483.972Z" fill="#FFBDE8"/>
</g>
<g style="mix-blend-mode:overlay" filter="url(#filter4_f_1_1336)">
<path opacity="0.1" d="M1081.62 25.0364L874.963 389.017L1661.6 768.931L1081.62 25.0364Z" fill="#5B7CE7"/>
</g>
<g opacity="0.4">
<path opacity="0.4" d="M553.677 396.128C553.403 396.128 553.182 395.906 553.182 395.633C553.182 395.359 553.403 395.138 553.677 395.138C553.95 395.138 554.171 395.359 554.171 395.633C554.171 395.906 553.95 396.128 553.677 396.128Z" fill="white"/>
<path d="M273.625 315.972C273.352 315.972 273.13 315.75 273.13 315.477C273.13 315.204 273.352 314.982 273.625 314.982C273.898 314.982 274.12 315.204 274.12 315.477C274.12 315.75 273.898 315.972 273.625 315.972Z" fill="white"/>
<path d="M1040.55 627.689C1040.28 627.689 1040.06 627.467 1040.06 627.194C1040.06 626.92 1040.28 626.699 1040.55 626.699C1040.82 626.699 1041.05 626.92 1041.05 627.194C1041.05 627.467 1040.82 627.689 1040.55 627.689Z" fill="white"/>
<path d="M464.614 406.023C464.341 406.023 464.119 405.802 464.119 405.528C464.119 405.255 464.341 405.034 464.614 405.034C464.887 405.034 465.109 405.255 465.109 405.528C465.109 405.802 464.887 406.023 464.614 406.023Z" fill="white"/>
<path d="M184.562 325.868C184.289 325.868 184.068 325.646 184.068 325.373C184.068 325.099 184.289 324.878 184.562 324.878C184.836 324.878 185.057 325.099 185.057 325.373C185.057 325.646 184.836 325.868 184.562 325.868Z" fill="white"/>
<path d="M951.489 637.584C951.216 637.584 950.994 637.363 950.994 637.09C950.994 636.816 951.216 636.595 951.489 636.595C951.762 636.595 951.984 636.816 951.984 637.09C951.984 637.363 951.762 637.584 951.489 637.584Z" fill="white"/>
<path d="M375.552 356.545C375.278 356.545 375.057 356.323 375.057 356.05C375.057 355.776 375.278 355.555 375.552 355.555C375.825 355.555 376.046 355.776 376.046 356.05C376.046 356.323 375.825 356.545 375.552 356.545Z" fill="white"/>
<path opacity="0.5" d="M95.5003 276.389C95.2271 276.389 95.0055 276.167 95.0055 275.894C95.0055 275.621 95.2271 275.399 95.5003 275.399C95.7736 275.399 95.9951 275.621 95.9951 275.894C95.9951 276.167 95.7736 276.389 95.5003 276.389Z" fill="white"/>
<path d="M862.427 588.105C862.153 588.105 861.932 587.884 861.932 587.611C861.932 587.337 862.153 587.116 862.427 587.116C862.7 587.116 862.921 587.337 862.921 587.611C862.921 587.884 862.7 588.105 862.427 588.105Z" fill="white"/>
<path d="M286.489 267.482C286.216 267.482 285.994 267.261 285.994 266.988C285.994 266.714 286.216 266.493 286.489 266.493C286.762 266.493 286.984 266.714 286.984 266.988C286.984 267.261 286.762 267.482 286.489 267.482Z" fill="white"/>
<path opacity="0.5" d="M6.43783 187.327C6.16456 187.327 5.94303 187.105 5.94303 186.832C5.94303 186.559 6.16456 186.337 6.43783 186.337C6.71109 186.337 6.93262 186.559 6.93262 186.832C6.93262 187.105 6.71109 187.327 6.43783 187.327Z" fill="white"/>
<path opacity="0.4" d="M773.364 499.044C773.091 499.044 772.869 498.822 772.869 498.549C772.869 498.275 773.091 498.054 773.364 498.054C773.637 498.054 773.859 498.275 773.859 498.549C773.859 498.822 773.637 499.044 773.364 499.044Z" fill="white"/>
<path d="M316.177 198.212C315.903 198.212 315.682 197.991 315.682 197.717C315.682 197.444 315.903 197.223 316.177 197.223C316.45 197.223 316.671 197.444 316.671 197.717C316.671 197.991 316.45 198.212 316.177 198.212Z" fill="white"/>
<path opacity="0.4" d="M36.1253 118.056C35.8521 118.056 35.6305 117.835 35.6305 117.562C35.6305 117.288 35.8521 117.067 36.1253 117.067C36.3986 117.067 36.6201 117.288 36.6201 117.562C36.6201 117.835 36.3986 118.056 36.1253 118.056Z" fill="white"/>
<path opacity="0.4" d="M405.239 168.525C404.966 168.525 404.744 168.303 404.744 168.03C404.744 167.757 404.966 167.535 405.239 167.535C405.512 167.535 405.734 167.757 405.734 168.03C405.734 168.303 405.512 168.525 405.239 168.525Z" fill="white"/>
<path d="M125.187 88.3692C124.914 88.3692 124.693 88.1477 124.693 87.8744C124.693 87.6012 124.914 87.3796 125.187 87.3796C125.461 87.3796 125.682 87.6012 125.682 87.8744C125.682 88.1477 125.461 88.3692 125.187 88.3692Z" fill="white"/>
<path d="M444.823 297.17C444.549 297.17 444.328 296.948 444.328 296.675C444.328 296.402 444.549 296.18 444.823 296.18C445.096 296.18 445.317 296.402 445.317 296.675C445.317 296.948 445.096 297.17 444.823 297.17Z" fill="white"/>
<path d="M164.77 217.014C164.497 217.014 164.276 216.793 164.276 216.519C164.276 216.246 164.497 216.025 164.77 216.025C165.044 216.025 165.265 216.246 165.265 216.519C165.265 216.793 165.044 217.014 164.77 217.014Z" fill="white"/>
<path d="M385.448 425.815C385.174 425.815 384.953 425.593 384.953 425.32C384.953 425.047 385.174 424.825 385.448 424.825C385.721 424.825 385.942 425.047 385.942 425.32C385.942 425.593 385.721 425.815 385.448 425.815Z" fill="white"/>
<path d="M105.395 345.659C105.122 345.659 104.901 345.437 104.901 345.164C104.901 344.891 105.122 344.669 105.395 344.669C105.669 344.669 105.89 344.891 105.89 345.164C105.89 345.437 105.669 345.659 105.395 345.659Z" fill="white"/>
<path d="M872.323 657.376C872.049 657.376 871.828 657.154 871.828 656.881C871.828 656.608 872.049 656.386 872.323 656.386C872.596 656.386 872.817 656.608 872.817 656.881C872.817 657.154 872.596 657.376 872.323 657.376Z" fill="white"/>
<path d="M237.01 366.44C236.737 366.44 236.515 366.219 236.515 365.945C236.515 365.672 236.737 365.451 237.01 365.451C237.283 365.451 237.505 365.672 237.505 365.945C237.505 366.219 237.283 366.44 237.01 366.44Z" fill="white"/>
<path d="M723.885 598.001C723.612 598.001 723.39 597.78 723.39 597.507C723.39 597.233 723.612 597.012 723.885 597.012C724.158 597.012 724.38 597.233 724.38 597.507C724.38 597.78 724.158 598.001 723.885 598.001Z" fill="white"/>
<path d="M217.219 356.545C216.945 356.545 216.724 356.323 216.724 356.05C216.724 355.776 216.945 355.555 217.219 355.555C217.492 355.555 217.713 355.776 217.713 356.05C217.713 356.323 217.492 356.545 217.219 356.545Z" fill="white"/>
<path d="M704.094 588.105C703.82 588.105 703.599 587.884 703.599 587.611C703.599 587.337 703.82 587.116 704.094 587.116C704.367 587.116 704.588 587.337 704.588 587.611C704.588 587.884 704.367 588.105 704.094 588.105Z" fill="white"/>
<path d="M207.323 267.482C207.049 267.482 206.828 267.261 206.828 266.988C206.828 266.714 207.049 266.493 207.323 266.493C207.596 266.493 207.817 266.714 207.817 266.988C207.817 267.261 207.596 267.482 207.323 267.482Z" fill="white"/>
<path d="M694.198 499.044C693.924 499.044 693.703 498.822 693.703 498.549C693.703 498.275 693.924 498.054 694.198 498.054C694.471 498.054 694.692 498.275 694.692 498.549C694.692 498.822 694.471 499.044 694.198 499.044Z" fill="white"/>
<path opacity="0.4" d="M228.104 227.899C227.831 227.899 227.609 227.678 227.609 227.405C227.609 227.131 227.831 226.91 228.104 226.91C228.377 226.91 228.599 227.131 228.599 227.405C228.599 227.678 228.377 227.899 228.104 227.899Z" fill="white"/>
<path d="M714.979 459.461C714.706 459.461 714.484 459.239 714.484 458.966C714.484 458.692 714.706 458.471 714.979 458.471C715.252 458.471 715.474 458.692 715.474 458.966C715.474 459.239 715.252 459.461 714.979 459.461Z" fill="white"/>
<path opacity="0.4" d="M347.844 277.378C347.57 277.378 347.349 277.157 347.349 276.883C347.349 276.61 347.57 276.389 347.844 276.389C348.117 276.389 348.338 276.61 348.338 276.883C348.338 277.157 348.117 277.378 347.844 277.378Z" fill="white"/>
<path d="M67.7918 197.223C67.5186 197.223 67.297 197.001 67.297 196.728C67.297 196.455 67.5186 196.233 67.7918 196.233C68.0651 196.233 68.2866 196.455 68.2866 196.728C68.2866 197.001 68.0651 197.223 67.7918 197.223Z" fill="white"/>
<path opacity="0.5" d="M834.719 508.939C834.445 508.939 834.224 508.718 834.224 508.444C834.224 508.171 834.445 507.95 834.719 507.95C834.992 507.95 835.213 508.171 835.213 508.444C835.213 508.718 834.992 508.939 834.719 508.939Z" fill="white"/>
<path opacity="0.5" d="M467.583 346.649C467.31 346.649 467.088 346.427 467.088 346.154C467.088 345.881 467.31 345.659 467.583 345.659C467.856 345.659 468.078 345.881 468.078 346.154C468.078 346.427 467.856 346.649 467.583 346.649Z" fill="white"/>
<path d="M187.531 266.493C187.258 266.493 187.036 266.271 187.036 265.998C187.036 265.725 187.258 265.503 187.531 265.503C187.804 265.503 188.026 265.725 188.026 265.998C188.026 266.271 187.804 266.493 187.531 266.493Z" fill="white"/>
<path opacity="0.4" d="M954.458 578.21C954.185 578.21 953.963 577.988 953.963 577.715C953.963 577.441 954.185 577.22 954.458 577.22C954.731 577.22 954.953 577.441 954.953 577.715C954.953 577.988 954.731 578.21 954.458 578.21Z" fill="white"/>
<path d="M597.219 455.502C596.945 455.502 596.724 455.281 596.724 455.007C596.724 454.734 596.945 454.513 597.219 454.513C597.492 454.513 597.713 454.734 597.713 455.007C597.713 455.281 597.492 455.502 597.219 455.502Z" fill="white"/>
<path d="M317.166 375.347C316.893 375.347 316.672 375.125 316.672 374.852C316.672 374.578 316.893 374.357 317.166 374.357C317.44 374.357 317.661 374.578 317.661 374.852C317.661 375.125 317.44 375.347 317.166 375.347Z" fill="white"/>
<path d="M1084.09 687.063C1083.82 687.063 1083.6 686.842 1083.6 686.568C1083.6 686.295 1083.82 686.073 1084.09 686.073C1084.37 686.073 1084.59 686.295 1084.59 686.568C1084.59 686.842 1084.37 687.063 1084.09 687.063Z" fill="white"/>
<path d="M677.375 564.356C677.102 564.356 676.88 564.134 676.88 563.861C676.88 563.587 677.102 563.366 677.375 563.366C677.648 563.366 677.87 563.587 677.87 563.861C677.87 564.134 677.648 564.356 677.375 564.356Z" fill="white"/>
<path d="M397.323 484.2C397.049 484.2 396.828 483.978 396.828 483.705C396.828 483.432 397.049 483.21 397.323 483.21C397.596 483.21 397.817 483.432 397.817 483.705C397.817 483.978 397.596 484.2 397.323 484.2Z" fill="white"/>
<path d="M1164.25 795.916C1163.98 795.916 1163.76 795.695 1163.76 795.422C1163.76 795.148 1163.98 794.927 1164.25 794.927C1164.52 794.927 1164.74 795.148 1164.74 795.422C1164.74 795.695 1164.52 795.916 1164.25 795.916Z" fill="white"/>
</g>
<g opacity="0.4">
<path opacity="0.4" d="M808 665.292C808.273 665.292 808.494 665.071 808.494 664.798C808.494 664.524 808.273 664.303 808 664.303C807.726 664.303 807.505 664.524 807.505 664.798C807.505 665.071 807.726 665.292 808 665.292Z" fill="white"/>
<path d="M1088.05 585.137C1088.33 585.137 1088.55 584.915 1088.55 584.642C1088.55 584.368 1088.33 584.147 1088.05 584.147C1087.78 584.147 1087.56 584.368 1087.56 584.642C1087.56 584.915 1087.78 585.137 1088.05 585.137Z" fill="white"/>
<path d="M321.125 896.853C321.398 896.853 321.619 896.632 321.619 896.359C321.619 896.085 321.398 895.864 321.125 895.864C320.851 895.864 320.63 896.085 320.63 896.359C320.63 896.632 320.851 896.853 321.125 896.853Z" fill="white"/>
<path d="M897.062 675.188C897.335 675.188 897.557 674.967 897.557 674.693C897.557 674.42 897.335 674.198 897.062 674.198C896.789 674.198 896.567 674.42 896.567 674.693C896.567 674.967 896.789 675.188 897.062 675.188Z" fill="white"/>
<path d="M1177.11 595.032C1177.39 595.032 1177.61 594.811 1177.61 594.538C1177.61 594.264 1177.39 594.043 1177.11 594.043C1176.84 594.043 1176.62 594.264 1176.62 594.538C1176.62 594.811 1176.84 595.032 1177.11 595.032Z" fill="white"/>
<path d="M410.187 906.749C410.46 906.749 410.682 906.527 410.682 906.254C410.682 905.981 410.46 905.759 410.187 905.759C409.914 905.759 409.692 905.981 409.692 906.254C409.692 906.527 409.914 906.749 410.187 906.749Z" fill="white"/>
<path d="M986.125 625.709C986.398 625.709 986.619 625.488 986.619 625.215C986.619 624.941 986.398 624.72 986.125 624.72C985.851 624.72 985.63 624.941 985.63 625.215C985.63 625.488 985.851 625.709 986.125 625.709Z" fill="white"/>
<path opacity="0.5" d="M1266.18 545.554C1266.45 545.554 1266.67 545.332 1266.67 545.059C1266.67 544.785 1266.45 544.564 1266.18 544.564C1265.9 544.564 1265.68 544.785 1265.68 545.059C1265.68 545.332 1265.9 545.554 1266.18 545.554Z" fill="white"/>
<path d="M499.25 857.27C499.523 857.27 499.744 857.049 499.744 856.776C499.744 856.502 499.523 856.281 499.25 856.281C498.976 856.281 498.755 856.502 498.755 856.776C498.755 857.049 498.976 857.27 499.25 857.27Z" fill="white"/>
<path d="M1075.19 536.647C1075.46 536.647 1075.68 536.426 1075.68 536.153C1075.68 535.879 1075.46 535.658 1075.19 535.658C1074.91 535.658 1074.69 535.879 1074.69 536.153C1074.69 536.426 1074.91 536.647 1075.19 536.647Z" fill="white"/>
<path opacity="0.5" d="M1355.24 456.492C1355.51 456.492 1355.73 456.27 1355.73 455.997C1355.73 455.724 1355.51 455.502 1355.24 455.502C1354.97 455.502 1354.74 455.724 1354.74 455.997C1354.74 456.27 1354.97 456.492 1355.24 456.492Z" fill="white"/>
<path opacity="0.4" d="M588.312 768.208C588.585 768.208 588.807 767.987 588.807 767.714C588.807 767.44 588.585 767.219 588.312 767.219C588.039 767.219 587.817 767.44 587.817 767.714C587.817 767.987 588.039 768.208 588.312 768.208Z" fill="white"/>
<path d="M1045.5 467.377C1045.77 467.377 1045.99 467.156 1045.99 466.882C1045.99 466.609 1045.77 466.387 1045.5 466.387C1045.23 466.387 1045 466.609 1045 466.882C1045 467.156 1045.23 467.377 1045.5 467.377Z" fill="white"/>
<path opacity="0.4" d="M1325.55 387.221C1325.83 387.221 1326.05 387 1326.05 386.726C1326.05 386.453 1325.83 386.232 1325.55 386.232C1325.28 386.232 1325.06 386.453 1325.06 386.726C1325.06 387 1325.28 387.221 1325.55 387.221Z" fill="white"/>
<path opacity="0.4" d="M956.437 437.69C956.71 437.69 956.932 437.468 956.932 437.195C956.932 436.922 956.71 436.7 956.437 436.7C956.164 436.7 955.942 436.922 955.942 437.195C955.942 437.468 956.164 437.69 956.437 437.69Z" fill="white"/>
<path d="M1236.49 357.534C1236.76 357.534 1236.98 357.312 1236.98 357.039C1236.98 356.766 1236.76 356.544 1236.49 356.544C1236.22 356.544 1235.99 356.766 1235.99 357.039C1235.99 357.312 1236.22 357.534 1236.49 357.534Z" fill="white"/>
<path d="M916.854 566.335C917.127 566.335 917.349 566.113 917.349 565.84C917.349 565.567 917.127 565.345 916.854 565.345C916.581 565.345 916.359 565.567 916.359 565.84C916.359 566.113 916.581 566.335 916.854 566.335Z" fill="white"/>
<path d="M1196.91 486.179C1197.18 486.179 1197.4 485.958 1197.4 485.684C1197.4 485.411 1197.18 485.189 1196.91 485.189C1196.63 485.189 1196.41 485.411 1196.41 485.684C1196.41 485.958 1196.63 486.179 1196.91 486.179Z" fill="white"/>
<path d="M976.229 694.98C976.502 694.98 976.724 694.758 976.724 694.485C976.724 694.212 976.502 693.99 976.229 693.99C975.956 693.99 975.734 694.212 975.734 694.485C975.734 694.758 975.956 694.98 976.229 694.98Z" fill="white"/>
<path d="M1256.28 614.824C1256.55 614.824 1256.78 614.603 1256.78 614.329C1256.78 614.056 1256.55 613.834 1256.28 613.834C1256.01 613.834 1255.79 614.056 1255.79 614.329C1255.79 614.603 1256.01 614.824 1256.28 614.824Z" fill="white"/>
<path d="M489.354 926.54C489.627 926.54 489.849 926.319 489.849 926.046C489.849 925.772 489.627 925.551 489.354 925.551C489.081 925.551 488.859 925.772 488.859 926.046C488.859 926.319 489.081 926.54 489.354 926.54Z" fill="white"/>
<path d="M1124.67 635.605C1124.94 635.605 1125.16 635.384 1125.16 635.11C1125.16 634.837 1124.94 634.615 1124.67 634.615C1124.39 634.615 1124.17 634.837 1124.17 635.11C1124.17 635.384 1124.39 635.605 1124.67 635.605Z" fill="white"/>
<path d="M1404.72 555.449C1404.99 555.449 1405.21 555.228 1405.21 554.955C1405.21 554.681 1404.99 554.46 1404.72 554.46C1404.45 554.46 1404.22 554.681 1404.22 554.955C1404.22 555.228 1404.45 555.449 1404.72 555.449Z" fill="white"/>
<path d="M637.792 867.166C638.065 867.166 638.286 866.944 638.286 866.671C638.286 866.398 638.065 866.176 637.792 866.176C637.518 866.176 637.297 866.398 637.297 866.671C637.297 866.944 637.518 867.166 637.792 867.166Z" fill="white"/>
<path d="M1144.46 625.709C1144.73 625.709 1144.95 625.488 1144.95 625.215C1144.95 624.941 1144.73 624.72 1144.46 624.72C1144.18 624.72 1143.96 624.941 1143.96 625.215C1143.96 625.488 1144.18 625.709 1144.46 625.709Z" fill="white"/>
<path d="M1424.51 545.554C1424.78 545.554 1425.01 545.332 1425.01 545.059C1425.01 544.785 1424.78 544.564 1424.51 544.564C1424.24 544.564 1424.02 544.785 1424.02 545.059C1424.02 545.332 1424.24 545.554 1424.51 545.554Z" fill="white"/>
<path d="M657.583 857.27C657.856 857.27 658.078 857.049 658.078 856.776C658.078 856.502 657.856 856.281 657.583 856.281C657.31 856.281 657.088 856.502 657.088 856.776C657.088 857.049 657.31 857.27 657.583 857.27Z" fill="white"/>
<path d="M1154.35 536.647C1154.63 536.647 1154.85 536.426 1154.85 536.153C1154.85 535.879 1154.63 535.658 1154.35 535.658C1154.08 535.658 1153.86 535.879 1153.86 536.153C1153.86 536.426 1154.08 536.647 1154.35 536.647Z" fill="white"/>
<path d="M667.479 768.208C667.752 768.208 667.974 767.987 667.974 767.714C667.974 767.44 667.752 767.219 667.479 767.219C667.206 767.219 666.984 767.44 666.984 767.714C666.984 767.987 667.206 768.208 667.479 768.208Z" fill="white"/>
<path opacity="0.4" d="M1133.57 497.064C1133.85 497.064 1134.07 496.843 1134.07 496.569C1134.07 496.296 1133.85 496.075 1133.57 496.075C1133.3 496.075 1133.08 496.296 1133.08 496.569C1133.08 496.843 1133.3 497.064 1133.57 497.064Z" fill="white"/>
<path d="M1413.62 416.909C1413.9 416.909 1414.12 416.687 1414.12 416.414C1414.12 416.14 1413.9 415.919 1413.62 415.919C1413.35 415.919 1413.13 416.14 1413.13 416.414C1413.13 416.687 1413.35 416.909 1413.62 416.909Z" fill="white"/>
<path d="M646.698 728.625C646.971 728.625 647.193 728.404 647.193 728.131C647.193 727.857 646.971 727.636 646.698 727.636C646.425 727.636 646.203 727.857 646.203 728.131C646.203 728.404 646.425 728.625 646.698 728.625Z" fill="white"/>
<path opacity="0.4" d="M1013.83 546.543C1014.11 546.543 1014.33 546.322 1014.33 546.048C1014.33 545.775 1014.11 545.553 1013.83 545.553C1013.56 545.553 1013.34 545.775 1013.34 546.048C1013.34 546.322 1013.56 546.543 1013.83 546.543Z" fill="white"/>
<path d="M1293.89 466.388C1294.16 466.388 1294.38 466.166 1294.38 465.893C1294.38 465.619 1294.16 465.398 1293.89 465.398C1293.61 465.398 1293.39 465.619 1293.39 465.893C1293.39 466.166 1293.61 466.388 1293.89 466.388Z" fill="white"/>
<path opacity="0.5" d="M526.958 778.104C527.231 778.104 527.453 777.882 527.453 777.609C527.453 777.336 527.231 777.114 526.958 777.114C526.685 777.114 526.463 777.336 526.463 777.609C526.463 777.882 526.685 778.104 526.958 778.104Z" fill="white"/>
<path opacity="0.5" d="M894.093 615.814C894.367 615.814 894.588 615.592 894.588 615.319C894.588 615.045 894.367 614.824 894.093 614.824C893.82 614.824 893.599 615.045 893.599 615.319C893.599 615.592 893.82 615.814 894.093 615.814Z" fill="white"/>
<path d="M1174.15 535.658C1174.42 535.658 1174.64 535.436 1174.64 535.163C1174.64 534.89 1174.42 534.668 1174.15 534.668C1173.87 534.668 1173.65 534.89 1173.65 535.163C1173.65 535.436 1173.87 535.658 1174.15 535.658Z" fill="white"/>
<path opacity="0.4" d="M407.218 847.374C407.492 847.374 407.713 847.153 407.713 846.88C407.713 846.606 407.492 846.385 407.218 846.385C406.945 846.385 406.724 846.606 406.724 846.88C406.724 847.153 406.945 847.374 407.218 847.374Z" fill="white"/>
<path d="M764.458 724.667C764.731 724.667 764.953 724.445 764.953 724.172C764.953 723.899 764.731 723.677 764.458 723.677C764.185 723.677 763.963 723.899 763.963 724.172C763.963 724.445 764.185 724.667 764.458 724.667Z" fill="white"/>
<path d="M1044.51 644.511C1044.78 644.511 1045.01 644.29 1045.01 644.017C1045.01 643.743 1044.78 643.522 1044.51 643.522C1044.24 643.522 1044.02 643.743 1044.02 644.017C1044.02 644.29 1044.24 644.511 1044.51 644.511Z" fill="white"/>
<path d="M277.583 956.228C277.856 956.228 278.078 956.006 278.078 955.733C278.078 955.46 277.856 955.238 277.583 955.238C277.31 955.238 277.088 955.46 277.088 955.733C277.088 956.006 277.31 956.228 277.583 956.228Z" fill="white"/>
<path d="M684.302 833.52C684.575 833.52 684.797 833.299 684.797 833.026C684.797 832.752 684.575 832.531 684.302 832.531C684.029 832.531 683.807 832.752 683.807 833.026C683.807 833.299 684.029 833.52 684.302 833.52Z" fill="white"/>
<path d="M964.354 753.365C964.627 753.365 964.849 753.143 964.849 752.87C964.849 752.597 964.627 752.375 964.354 752.375C964.081 752.375 963.859 752.597 963.859 752.87C963.859 753.143 964.081 753.365 964.354 753.365Z" fill="white"/>
<path d="M197.427 1065.08C197.7 1065.08 197.922 1064.86 197.922 1064.59C197.922 1064.31 197.7 1064.09 197.427 1064.09C197.154 1064.09 196.932 1064.31 196.932 1064.59C196.932 1064.86 197.154 1065.08 197.427 1065.08Z" fill="white"/>
</g>
<g style="mix-blend-mode:overlay" filter="url(#filter5_f_1_1336)">
<path opacity="0.1" d="M1739.94 1054.68L1513.12 752.47L811.993 1200.18L1739.94 1054.68Z" fill="#A387F2"/>
</g>
<g filter="url(#filter6_f_1_1336)">
<path d="M651.151 363.471H639.276C631.078 363.471 624.432 370.117 624.432 378.315C624.432 386.513 631.078 393.159 639.276 393.159H651.151C659.349 393.159 665.995 386.513 665.995 378.315C665.995 370.117 659.349 363.471 651.151 363.471Z" fill="#B868C7"/>
</g>
<g filter="url(#filter7_f_1_1336)">
<path d="M774.354 355.555H755.552C750.36 355.555 746.151 359.764 746.151 364.956C746.151 370.148 750.36 374.357 755.552 374.357H774.354C779.546 374.357 783.755 370.148 783.755 364.956C783.755 359.764 779.546 355.555 774.354 355.555Z" fill="#F6F6F6"/>
</g>
</g>
<defs>
<filter id="filter0_f_1_1336" x="-14.9951" y="-14.7031" width="1455" height="1385.72" filterUnits="userSpaceOnUse" color-interpolation-filters="sRGB">
<feFlood flood-opacity="0" result="BackgroundImageFix"/>
<feBlend mode="normal" in="SourceGraphic" in2="BackgroundImageFix" result="shape"/>
<feGaussianBlur stdDeviation="7.5" result="effect1_foregroundBlur_1_1336"/>
</filter>
<filter id="filter1_f_1_1336" x="-279.401" y="280.42" width="687.439" height="1006.41" filterUnits="userSpaceOnUse" color-interpolation-filters="sRGB">
<feFlood flood-opacity="0" result="BackgroundImageFix"/>
<feBlend mode="normal" in="SourceGraphic" in2="BackgroundImageFix" result="shape"/>
<feGaussianBlur stdDeviation="64" result="effect1_foregroundBlur_1_1336"/>
</filter>
<filter id="filter2_f_1_1336" x="-386.276" y="-20.707" width="1092.01" height="742.984" filterUnits="userSpaceOnUse" color-interpolation-filters="sRGB">
<feFlood flood-opacity="0" result="BackgroundImageFix"/>
<feBlend mode="normal" in="SourceGraphic" in2="BackgroundImageFix" result="shape"/>
<feGaussianBlur stdDeviation="64" result="effect1_foregroundBlur_1_1336"/>
</filter>
<filter id="filter3_f_1_1336" x="955.064" y="321.337" width="687.438" height="1129.46" filterUnits="userSpaceOnUse" color-interpolation-filters="sRGB">
<feFlood flood-opacity="0" result="BackgroundImageFix"/>
<feBlend mode="normal" in="SourceGraphic" in2="BackgroundImageFix" result="shape"/>
<feGaussianBlur stdDeviation="64" result="effect1_foregroundBlur_1_1336"/>
</filter>
<filter id="filter4_f_1_1336" x="746.963" y="-102.964" width="1042.64" height="999.894" filterUnits="userSpaceOnUse" color-interpolation-filters="sRGB">
<feFlood flood-opacity="0" result="BackgroundImageFix"/>
<feBlend mode="normal" in="SourceGraphic" in2="BackgroundImageFix" result="shape"/>
<feGaussianBlur stdDeviation="64" result="effect1_foregroundBlur_1_1336"/>
</filter>
<filter id="filter5_f_1_1336" x="683.993" y="624.47" width="1183.95" height="703.708" filterUnits="userSpaceOnUse" color-interpolation-filters="sRGB">
<feFlood flood-opacity="0" result="BackgroundImageFix"/>
<feBlend mode="normal" in="SourceGraphic" in2="BackgroundImageFix" result="shape"/>
<feGaussianBlur stdDeviation="64" result="effect1_foregroundBlur_1_1336"/>
</filter>
<filter id="filter6_f_1_1336" x="548.432" y="287.471" width="193.562" height="181.687" filterUnits="userSpaceOnUse" color-interpolation-filters="sRGB">
<feFlood flood-opacity="0" result="BackgroundImageFix"/>
<feBlend mode="normal" in="SourceGraphic" in2="BackgroundImageFix" result="shape"/>
<feGaussianBlur stdDeviation="38" result="effect1_foregroundBlur_1_1336"/>
</filter>
<filter id="filter7_f_1_1336" x="670.151" y="279.555" width="189.604" height="170.802" filterUnits="userSpaceOnUse" color-interpolation-filters="sRGB">
<feFlood flood-opacity="0" result="BackgroundImageFix"/>
<feBlend mode="normal" in="SourceGraphic" in2="BackgroundImageFix" result="shape"/>
<feGaussianBlur stdDeviation="38" result="effect1_foregroundBlur_1_1336"/>
</filter>
<clipPath id="clip0_1_1336">
<rect width="1425" height="1355.72" fill="white" transform="translate(0.00488281 0.296875)"/>
</clipPath>
</defs>
</svg>
