<svg width="1189" height="489" viewBox="0 0 1189 489" fill="none" xmlns="http://www.w3.org/2000/svg">
<g clip-path="url(#clip0_1_1626)">
<g clip-path="url(#clip1_1_1626)">
<path d="M842.095 -139.111L841.221 -139.107L841.659 -139.861L1134.45 -644.979C1174.06 -713.312 1150.55 -800.688 1081.95 -840.139C1013.35 -879.591 925.624 -856.178 886.016 -787.846L604.223 -301.717L603.788 -300.968L603.353 -301.717L318.801 -792.625C279.192 -860.957 191.468 -884.37 122.863 -844.918C54.2581 -805.467 30.7529 -718.091 70.3613 -649.758L367.141 -137.763L367.574 -137.017L366.708 -137.013L-219.578 -134.426C-298.794 -134.076 -362.728 -69.8299 -362.377 9.07239C-362.026 87.9795 -297.523 151.65 -218.306 151.307L342.194 148.832L343.068 148.828L342.63 149.582L70.3613 619.29C30.7528 687.628 54.258 774.995 122.863 814.455C191.468 853.905 279.191 830.494 318.801 762.156L603.353 271.25L603.788 270.5L604.223 271.25L886.016 757.377C925.624 825.716 1013.35 849.127 1081.95 809.676C1150.55 770.216 1174.06 682.849 1134.45 614.511L863.624 147.279L863.191 146.532L864.056 146.529L1412.98 144.101C1492.2 143.758 1556.13 79.5091 1555.79 0.606873C1555.44 -78.2955 1490.93 -141.975 1411.71 -141.626L842.095 -139.111Z" stroke="url(#paint0_radial_1_1626)" stroke-opacity="0.2"/>
</g>
</g>
<defs>
<radialGradient id="paint0_radial_1_1626" cx="0" cy="0" r="1" gradientTransform="matrix(1.50567 179.5 -764.899 6.36825 568.6 138.578)" gradientUnits="userSpaceOnUse">
<stop stop-color="white"/>
<stop offset="1" stop-color="white" stop-opacity="0"/>
</radialGradient>
<clipPath id="clip0_1_1626">
<rect width="1188.44" height="488" fill="white" transform="translate(0.265625 0.078125)"/>
</clipPath>
<clipPath id="clip1_1_1626">
<rect width="1188.44" height="488" fill="white" transform="translate(2.48438 0.078125)"/>
</clipPath>
</defs>
</svg>
