<svg width="338" height="182" viewBox="0 0 338 182" fill="none" xmlns="http://www.w3.org/2000/svg">
<g clip-path="url(#clip0_1_1630)">
<path d="M300.25 76.0781H91.25C83.2419 76.0781 76.75 82.57 76.75 90.5781C76.75 98.5863 83.2419 105.078 91.25 105.078H300.25C308.258 105.078 314.75 98.5863 314.75 90.5781C314.75 82.57 308.258 76.0781 300.25 76.0781Z" fill="#080808"/>
<path opacity="0.1" d="M299.25 52.5781H90.25C69.2632 52.5781 52.25 69.5913 52.25 90.5781C52.25 111.565 69.2632 128.578 90.25 128.578H299.25C320.237 128.578 337.25 111.565 337.25 90.5781C337.25 69.5913 320.237 52.5781 299.25 52.5781Z" fill="url(#paint0_linear_1_1630)" fill-opacity="0.05" stroke="url(#paint1_linear_1_1630)"/>
<path opacity="0.2" d="M299.25 64.5781H90.25C75.8906 64.5781 64.25 76.2187 64.25 90.5781C64.25 104.938 75.8906 116.578 90.25 116.578H299.25C313.609 116.578 325.25 104.938 325.25 90.5781C325.25 76.2187 313.609 64.5781 299.25 64.5781Z" fill="url(#paint2_linear_1_1630)" fill-opacity="0.05" stroke="url(#paint3_linear_1_1630)"/>
<path opacity="0.5" d="M299.25 76.0781H90.25C82.2419 76.0781 75.75 82.57 75.75 90.5781C75.75 98.5863 82.2419 105.078 90.25 105.078H299.25C307.258 105.078 313.75 98.5863 313.75 90.5781C313.75 82.57 307.258 76.0781 299.25 76.0781Z" fill="#0EA65E" fill-opacity="0.05"/>
<path d="M300.25 76.0781H91.25C83.2419 76.0781 76.75 82.57 76.75 90.5781C76.75 98.5863 83.2419 105.078 91.25 105.078H300.25C308.258 105.078 314.75 98.5863 314.75 90.5781C314.75 82.57 308.258 76.0781 300.25 76.0781Z" fill="white" fill-opacity="0.01"/>
<path d="M300.25 76.0781H91.25C83.2419 76.0781 76.75 82.57 76.75 90.5781C76.75 98.5863 83.2419 105.078 91.25 105.078H300.25C308.258 105.078 314.75 98.5863 314.75 90.5781C314.75 82.57 308.258 76.0781 300.25 76.0781Z" fill="url(#paint4_radial_1_1630)" fill-opacity="0.2"/>
<path d="M300.25 76.5781H91.25C83.518 76.5781 77.25 82.8461 77.25 90.5781C77.25 98.3101 83.518 104.578 91.25 104.578H300.25C307.982 104.578 314.25 98.3101 314.25 90.5781C314.25 82.8461 307.982 76.5781 300.25 76.5781Z" stroke="url(#paint5_radial_1_1630)" stroke-opacity="0.6"/>
<path d="M300.25 76.5781H91.25C83.518 76.5781 77.25 82.8461 77.25 90.5781C77.25 98.3101 83.518 104.578 91.25 104.578H300.25C307.982 104.578 314.25 98.3101 314.25 90.5781C314.25 82.8461 307.982 76.5781 300.25 76.5781Z" stroke="url(#paint6_linear_1_1630)" stroke-opacity="0.5"/>
<path d="M96.25 90.5781C96.25 88.6451 94.683 87.0781 92.75 87.0781C90.817 87.0781 89.25 88.6451 89.25 90.5781C89.25 92.5111 90.817 94.0781 92.75 94.0781C94.683 94.0781 96.25 92.5111 96.25 90.5781Z" fill="url(#paint7_linear_1_1630)" stroke="url(#paint8_radial_1_1630)"/>
<path d="M106.587 95.0779H105.073L108.475 85.6234H110.124L113.526 95.0779H112.012L109.339 87.3407H109.265L106.587 95.0779ZM106.841 91.3755H111.753V92.5758H106.841V91.3755ZM115.541 95.0779V85.6234H116.968V93.8499H121.252V95.0779H115.541ZM123.529 95.0779V85.6234H124.956V93.8499H129.24V95.0779H123.529ZM140.764 88.107C140.715 87.67 140.512 87.3315 140.155 87.0914C139.798 86.8483 139.348 86.7267 138.807 86.7267C138.419 86.7267 138.083 86.7882 137.8 86.9114C137.517 87.0314 137.297 87.1976 137.14 87.4099C136.986 87.6192 136.909 87.8577 136.909 88.1255C136.909 88.3502 136.962 88.544 137.066 88.7072C137.174 88.8703 137.314 89.0072 137.486 89.118C137.662 89.2257 137.85 89.3165 138.05 89.3904C138.25 89.4612 138.442 89.5197 138.627 89.5658L139.55 89.8059C139.852 89.8797 140.161 89.9798 140.478 90.106C140.795 90.2321 141.089 90.3983 141.36 90.6045C141.63 90.8107 141.849 91.0662 142.015 91.3709C142.184 91.6756 142.269 92.0403 142.269 92.465C142.269 93.0005 142.131 93.476 141.854 93.8915C141.58 94.3069 141.181 94.6347 140.658 94.8748C140.138 95.1148 139.508 95.2349 138.77 95.2349C138.062 95.2349 137.449 95.1225 136.932 94.8979C136.415 94.6732 136.011 94.3547 135.718 93.9422C135.426 93.5268 135.264 93.0343 135.234 92.465H136.665C136.692 92.8066 136.803 93.0913 136.997 93.319C137.194 93.5437 137.445 93.7114 137.75 93.8222C138.057 93.9299 138.394 93.9838 138.761 93.9838C139.164 93.9838 139.522 93.9207 139.836 93.7945C140.153 93.6653 140.402 93.4868 140.584 93.259C140.766 93.0282 140.856 92.7589 140.856 92.4511C140.856 92.1711 140.776 91.9418 140.616 91.7633C140.459 91.5848 140.245 91.437 139.975 91.3201C139.707 91.2031 139.404 91.1 139.065 91.0108L137.948 90.7061C137.191 90.4999 136.591 90.1967 136.148 89.7967C135.707 89.3966 135.487 88.8672 135.487 88.2086C135.487 87.6638 135.635 87.1883 135.931 86.7821C136.226 86.3758 136.626 86.0604 137.131 85.8357C137.636 85.608 138.205 85.4941 138.839 85.4941C139.479 85.4941 140.044 85.6064 140.533 85.8311C141.026 86.0558 141.413 86.3651 141.697 86.759C141.98 87.1499 142.127 87.5992 142.14 88.107H140.764ZM143.894 85.6234H145.515L147.984 89.9213H148.086L150.556 85.6234H152.176L148.746 91.3663V95.0779H147.324V91.3663L143.894 85.6234ZM159.33 88.107C159.28 87.67 159.077 87.3315 158.72 87.0914C158.363 86.8483 157.914 86.7267 157.372 86.7267C156.985 86.7267 156.649 86.7882 156.366 86.9114C156.083 87.0314 155.863 87.1976 155.706 87.4099C155.552 87.6192 155.475 87.8577 155.475 88.1255C155.475 88.3502 155.527 88.544 155.632 88.7072C155.74 88.8703 155.88 89.0072 156.052 89.118C156.227 89.2257 156.415 89.3165 156.615 89.3904C156.815 89.4612 157.008 89.5197 157.192 89.5658L158.116 89.8059C158.417 89.8797 158.726 89.9798 159.043 90.106C159.36 90.2321 159.654 90.3983 159.925 90.6045C160.196 90.8107 160.415 91.0662 160.581 91.3709C160.75 91.6756 160.835 92.0403 160.835 92.465C160.835 93.0005 160.696 93.476 160.419 93.8915C160.145 94.3069 159.747 94.6347 159.224 94.8748C158.703 95.1148 158.074 95.2349 157.335 95.2349C156.628 95.2349 156.015 95.1225 155.498 94.8979C154.981 94.6732 154.576 94.3547 154.284 93.9422C153.992 93.5268 153.83 93.0343 153.799 92.465H155.23C155.258 92.8066 155.369 93.0913 155.563 93.319C155.76 93.5437 156.01 93.7114 156.315 93.8222C156.623 93.9299 156.96 93.9838 157.326 93.9838C157.729 93.9838 158.088 93.9207 158.402 93.7945C158.719 93.6653 158.968 93.4868 159.15 93.259C159.331 93.0282 159.422 92.7589 159.422 92.4511C159.422 92.1711 159.342 91.9418 159.182 91.7633C159.025 91.5848 158.811 91.437 158.54 91.3201C158.273 91.2031 157.969 91.1 157.631 91.0108L156.514 90.7061C155.757 90.4999 155.156 90.1967 154.713 89.7967C154.273 89.3966 154.053 88.8672 154.053 88.2086C154.053 87.6638 154.201 87.1883 154.496 86.7821C154.792 86.3758 155.192 86.0604 155.697 85.8357C156.201 85.608 156.771 85.4941 157.405 85.4941C158.045 85.4941 158.61 85.6064 159.099 85.8311C159.591 86.0558 159.979 86.3651 160.262 86.759C160.545 87.1499 160.693 87.5992 160.705 88.107H159.33ZM162.723 86.8513V85.6234H170.04V86.8513H167.09V95.0779H165.668V86.8513H162.723ZM172.307 95.0779V85.6234H178.235V86.8513H173.734V89.732H177.925V90.9554H173.734V93.8499H178.29V95.0779H172.307ZM180.79 85.6234H182.521L185.531 92.9728H185.642L188.652 85.6234H190.383V95.0779H189.026V88.2363H188.938L186.15 95.0641H185.023L182.235 88.2317H182.147V95.0779H180.79V85.6234ZM198.264 88.107C198.214 87.67 198.011 87.3315 197.654 87.0914C197.297 86.8483 196.848 86.7267 196.306 86.7267C195.919 86.7267 195.583 86.7882 195.3 86.9114C195.017 87.0314 194.797 87.1976 194.64 87.4099C194.486 87.6192 194.409 87.8577 194.409 88.1255C194.409 88.3502 194.461 88.544 194.566 88.7072C194.674 88.8703 194.814 89.0072 194.986 89.118C195.161 89.2257 195.349 89.3165 195.549 89.3904C195.749 89.4612 195.942 89.5197 196.126 89.5658L197.05 89.8059C197.351 89.8797 197.66 89.9798 197.977 90.106C198.294 90.2321 198.588 90.3983 198.859 90.6045C199.13 90.8107 199.349 91.0662 199.515 91.3709C199.684 91.6756 199.769 92.0403 199.769 92.465C199.769 93.0005 199.63 93.476 199.353 93.8915C199.079 94.3069 198.681 94.6347 198.157 94.8748C197.637 95.1148 197.008 95.2349 196.269 95.2349C195.561 95.2349 194.949 95.1225 194.432 94.8979C193.915 94.6732 193.51 94.3547 193.218 93.9422C192.925 93.5268 192.764 93.0343 192.733 92.465H194.164C194.192 92.8066 194.303 93.0913 194.497 93.319C194.694 93.5437 194.944 93.7114 195.249 93.8222C195.557 93.9299 195.894 93.9838 196.26 93.9838C196.663 93.9838 197.022 93.9207 197.336 93.7945C197.653 93.6653 197.902 93.4868 198.084 93.259C198.265 93.0282 198.356 92.7589 198.356 92.4511C198.356 92.1711 198.276 91.9418 198.116 91.7633C197.959 91.5848 197.745 91.437 197.474 91.3201C197.206 91.2031 196.903 91.1 196.565 91.0108L195.448 90.7061C194.691 90.4999 194.09 90.1967 193.647 89.7967C193.207 89.3966 192.987 88.8672 192.987 88.2086C192.987 87.6638 193.135 87.1883 193.43 86.7821C193.726 86.3758 194.126 86.0604 194.631 85.8357C195.135 85.608 195.705 85.4941 196.339 85.4941C196.979 85.4941 197.544 85.6064 198.033 85.8311C198.525 86.0558 198.913 86.3651 199.196 86.759C199.479 87.1499 199.627 87.5992 199.639 88.107H198.264ZM214.426 90.3506C214.426 91.3601 214.242 92.228 213.872 92.9543C213.503 93.6776 212.997 94.2346 212.354 94.6255C211.713 95.0133 210.986 95.2072 210.17 95.2072C209.351 95.2072 208.62 95.0133 207.977 94.6255C207.337 94.2346 206.832 93.676 206.463 92.9497C206.094 92.2234 205.909 91.357 205.909 90.3506C205.909 89.3412 206.094 88.4748 206.463 87.7516C206.832 87.0252 207.337 86.4682 207.977 86.0804C208.62 85.6895 209.351 85.4941 210.17 85.4941C210.986 85.4941 211.713 85.6895 212.354 86.0804C212.997 86.4682 213.503 87.0252 213.872 87.7516C214.242 88.4748 214.426 89.3412 214.426 90.3506ZM213.014 90.3506C213.014 89.5812 212.889 88.9334 212.64 88.4071C212.394 87.8777 212.055 87.4776 211.624 87.2068C211.196 86.9329 210.712 86.7959 210.17 86.7959C209.625 86.7959 209.139 86.9329 208.711 87.2068C208.283 87.4776 207.945 87.8777 207.696 88.4071C207.449 88.9334 207.326 89.5812 207.326 90.3506C207.326 91.12 207.449 91.7694 207.696 92.2988C207.945 92.8251 208.283 93.2252 208.711 93.4991C209.139 93.7699 209.625 93.9053 210.17 93.9053C210.712 93.9053 211.196 93.7699 211.624 93.4991C212.055 93.2252 212.394 92.8251 212.64 92.2988C212.889 91.7694 213.014 91.12 213.014 90.3506ZM216.855 95.0779V85.6234H220.225C220.961 85.6234 221.57 85.7572 222.053 86.025C222.536 86.2927 222.898 86.659 223.138 87.1237C223.378 87.5854 223.498 88.1055 223.498 88.6841C223.498 89.2658 223.376 89.789 223.133 90.2537C222.893 90.7153 222.53 91.0816 222.044 91.3524C221.561 91.6202 220.953 91.754 220.22 91.754H217.903V90.5445H220.091C220.556 90.5445 220.933 90.4645 221.222 90.3045C221.511 90.1413 221.724 89.9198 221.859 89.6397C221.995 89.3596 222.062 89.0411 222.062 88.6841C222.062 88.3271 221.995 88.0101 221.859 87.7331C221.724 87.4561 221.51 87.2391 221.217 87.0822C220.928 86.9252 220.547 86.8467 220.073 86.8467H218.281V95.0779H216.855ZM225.82 95.0779V85.6234H231.748V86.8513H227.247V89.732H231.439V90.9554H227.247V93.8499H231.803V95.0779H225.82ZM234.303 95.0779V85.6234H237.673C238.406 85.6234 239.014 85.7495 239.497 86.0019C239.983 86.2543 240.346 86.6036 240.586 87.0498C240.826 87.493 240.946 88.0055 240.946 88.5871C240.946 89.1657 240.825 89.6751 240.582 90.1152C240.342 90.5522 239.979 90.8923 239.492 91.1354C239.009 91.3786 238.401 91.5001 237.669 91.5001H235.116V90.2721H237.54C238.001 90.2721 238.377 90.206 238.666 90.0736C238.958 89.9413 239.172 89.7489 239.308 89.4966C239.443 89.2442 239.511 88.9411 239.511 88.5871C239.511 88.2301 239.441 87.9208 239.303 87.6592C239.168 87.3976 238.954 87.1976 238.661 87.0591C238.372 86.9175 237.992 86.8467 237.521 86.8467H235.73V95.0779H234.303ZM238.971 90.8123L241.307 95.0779H239.682L237.392 90.8123H238.971ZM244.131 95.0779H242.617L246.019 85.6234H247.667L251.069 95.0779H249.555L246.882 87.3407H246.808L244.131 95.0779ZM244.385 91.3755H249.297V92.5758H244.385V91.3755ZM251.501 86.8513V85.6234H258.818V86.8513H255.869V95.0779H254.447V86.8513H251.501ZM262.512 85.6234V95.0779H261.085V85.6234H262.512ZM273.452 90.3506C273.452 91.3601 273.267 92.228 272.898 92.9543C272.529 93.6776 272.022 94.2346 271.379 94.6255C270.739 95.0133 270.011 95.2072 269.196 95.2072C268.377 95.2072 267.646 95.0133 267.003 94.6255C266.363 94.2346 265.858 93.676 265.489 92.9497C265.119 92.2234 264.935 91.357 264.935 90.3506C264.935 89.3412 265.119 88.4748 265.489 87.7516C265.858 87.0252 266.363 86.4682 267.003 86.0804C267.646 85.6895 268.377 85.4941 269.196 85.4941C270.011 85.4941 270.739 85.6895 271.379 86.0804C272.022 86.4682 272.529 87.0252 272.898 87.7516C273.267 88.4748 273.452 89.3412 273.452 90.3506ZM272.039 90.3506C272.039 89.5812 271.915 88.9334 271.665 88.4071C271.419 87.8777 271.081 87.4776 270.65 87.2068C270.222 86.9329 269.737 86.7959 269.196 86.7959C268.651 86.7959 268.165 86.9329 267.737 87.2068C267.309 87.4776 266.97 87.8777 266.721 88.4071C266.475 88.9334 266.352 89.5812 266.352 90.3506C266.352 91.12 266.475 91.7694 266.721 92.2988C266.97 92.8251 267.309 93.2252 267.737 93.4991C268.165 93.7699 268.651 93.9053 269.196 93.9053C269.737 93.9053 270.222 93.7699 270.65 93.4991C271.081 93.2252 271.419 92.8251 271.665 92.2988C271.915 91.7694 272.039 91.12 272.039 90.3506ZM283.512 85.6234V95.0779H282.2L277.395 88.144H277.307V95.0779H275.881V85.6234H277.201L282.011 92.5665H282.099V85.6234H283.512ZM287.041 95.0779H285.527L288.929 85.6234H290.577L293.98 95.0779H292.465L289.792 87.3407H289.719L287.041 95.0779ZM287.295 91.3755H292.207V92.5758H287.295V91.3755ZM295.995 95.0779V85.6234H297.421V93.8499H301.706V95.0779H295.995Z" fill="#CECECE"/>
<path d="M106.587 95.0779H105.073L108.475 85.6234H110.124L113.526 95.0779H112.012L109.339 87.3407H109.265L106.587 95.0779ZM106.841 91.3755H111.753V92.5758H106.841V91.3755ZM115.541 95.0779V85.6234H116.968V93.8499H121.252V95.0779H115.541ZM123.529 95.0779V85.6234H124.956V93.8499H129.24V95.0779H123.529ZM140.764 88.107C140.715 87.67 140.512 87.3315 140.155 87.0914C139.798 86.8483 139.348 86.7267 138.807 86.7267C138.419 86.7267 138.083 86.7882 137.8 86.9114C137.517 87.0314 137.297 87.1976 137.14 87.4099C136.986 87.6192 136.909 87.8577 136.909 88.1255C136.909 88.3502 136.962 88.544 137.066 88.7072C137.174 88.8703 137.314 89.0072 137.486 89.118C137.662 89.2257 137.85 89.3165 138.05 89.3904C138.25 89.4612 138.442 89.5197 138.627 89.5658L139.55 89.8059C139.852 89.8797 140.161 89.9798 140.478 90.106C140.795 90.2321 141.089 90.3983 141.36 90.6045C141.63 90.8107 141.849 91.0662 142.015 91.3709C142.184 91.6756 142.269 92.0403 142.269 92.465C142.269 93.0005 142.131 93.476 141.854 93.8915C141.58 94.3069 141.181 94.6347 140.658 94.8748C140.138 95.1148 139.508 95.2349 138.77 95.2349C138.062 95.2349 137.449 95.1225 136.932 94.8979C136.415 94.6732 136.011 94.3547 135.718 93.9422C135.426 93.5268 135.264 93.0343 135.234 92.465H136.665C136.692 92.8066 136.803 93.0913 136.997 93.319C137.194 93.5437 137.445 93.7114 137.75 93.8222C138.057 93.9299 138.394 93.9838 138.761 93.9838C139.164 93.9838 139.522 93.9207 139.836 93.7945C140.153 93.6653 140.402 93.4868 140.584 93.259C140.766 93.0282 140.856 92.7589 140.856 92.4511C140.856 92.1711 140.776 91.9418 140.616 91.7633C140.459 91.5848 140.245 91.437 139.975 91.3201C139.707 91.2031 139.404 91.1 139.065 91.0108L137.948 90.7061C137.191 90.4999 136.591 90.1967 136.148 89.7967C135.707 89.3966 135.487 88.8672 135.487 88.2086C135.487 87.6638 135.635 87.1883 135.931 86.7821C136.226 86.3758 136.626 86.0604 137.131 85.8357C137.636 85.608 138.205 85.4941 138.839 85.4941C139.479 85.4941 140.044 85.6064 140.533 85.8311C141.026 86.0558 141.413 86.3651 141.697 86.759C141.98 87.1499 142.127 87.5992 142.14 88.107H140.764ZM143.894 85.6234H145.515L147.984 89.9213H148.086L150.556 85.6234H152.176L148.746 91.3663V95.0779H147.324V91.3663L143.894 85.6234ZM159.33 88.107C159.28 87.67 159.077 87.3315 158.72 87.0914C158.363 86.8483 157.914 86.7267 157.372 86.7267C156.985 86.7267 156.649 86.7882 156.366 86.9114C156.083 87.0314 155.863 87.1976 155.706 87.4099C155.552 87.6192 155.475 87.8577 155.475 88.1255C155.475 88.3502 155.527 88.544 155.632 88.7072C155.74 88.8703 155.88 89.0072 156.052 89.118C156.227 89.2257 156.415 89.3165 156.615 89.3904C156.815 89.4612 157.008 89.5197 157.192 89.5658L158.116 89.8059C158.417 89.8797 158.726 89.9798 159.043 90.106C159.36 90.2321 159.654 90.3983 159.925 90.6045C160.196 90.8107 160.415 91.0662 160.581 91.3709C160.75 91.6756 160.835 92.0403 160.835 92.465C160.835 93.0005 160.696 93.476 160.419 93.8915C160.145 94.3069 159.747 94.6347 159.224 94.8748C158.703 95.1148 158.074 95.2349 157.335 95.2349C156.628 95.2349 156.015 95.1225 155.498 94.8979C154.981 94.6732 154.576 94.3547 154.284 93.9422C153.992 93.5268 153.83 93.0343 153.799 92.465H155.23C155.258 92.8066 155.369 93.0913 155.563 93.319C155.76 93.5437 156.01 93.7114 156.315 93.8222C156.623 93.9299 156.96 93.9838 157.326 93.9838C157.729 93.9838 158.088 93.9207 158.402 93.7945C158.719 93.6653 158.968 93.4868 159.15 93.259C159.331 93.0282 159.422 92.7589 159.422 92.4511C159.422 92.1711 159.342 91.9418 159.182 91.7633C159.025 91.5848 158.811 91.437 158.54 91.3201C158.273 91.2031 157.969 91.1 157.631 91.0108L156.514 90.7061C155.757 90.4999 155.156 90.1967 154.713 89.7967C154.273 89.3966 154.053 88.8672 154.053 88.2086C154.053 87.6638 154.201 87.1883 154.496 86.7821C154.792 86.3758 155.192 86.0604 155.697 85.8357C156.201 85.608 156.771 85.4941 157.405 85.4941C158.045 85.4941 158.61 85.6064 159.099 85.8311C159.591 86.0558 159.979 86.3651 160.262 86.759C160.545 87.1499 160.693 87.5992 160.705 88.107H159.33ZM162.723 86.8513V85.6234H170.04V86.8513H167.09V95.0779H165.668V86.8513H162.723ZM172.307 95.0779V85.6234H178.235V86.8513H173.734V89.732H177.925V90.9554H173.734V93.8499H178.29V95.0779H172.307ZM180.79 85.6234H182.521L185.531 92.9728H185.642L188.652 85.6234H190.383V95.0779H189.026V88.2363H188.938L186.15 95.0641H185.023L182.235 88.2317H182.147V95.0779H180.79V85.6234ZM198.264 88.107C198.214 87.67 198.011 87.3315 197.654 87.0914C197.297 86.8483 196.848 86.7267 196.306 86.7267C195.919 86.7267 195.583 86.7882 195.3 86.9114C195.017 87.0314 194.797 87.1976 194.64 87.4099C194.486 87.6192 194.409 87.8577 194.409 88.1255C194.409 88.3502 194.461 88.544 194.566 88.7072C194.674 88.8703 194.814 89.0072 194.986 89.118C195.161 89.2257 195.349 89.3165 195.549 89.3904C195.749 89.4612 195.942 89.5197 196.126 89.5658L197.05 89.8059C197.351 89.8797 197.66 89.9798 197.977 90.106C198.294 90.2321 198.588 90.3983 198.859 90.6045C199.13 90.8107 199.349 91.0662 199.515 91.3709C199.684 91.6756 199.769 92.0403 199.769 92.465C199.769 93.0005 199.63 93.476 199.353 93.8915C199.079 94.3069 198.681 94.6347 198.157 94.8748C197.637 95.1148 197.008 95.2349 196.269 95.2349C195.561 95.2349 194.949 95.1225 194.432 94.8979C193.915 94.6732 193.51 94.3547 193.218 93.9422C192.925 93.5268 192.764 93.0343 192.733 92.465H194.164C194.192 92.8066 194.303 93.0913 194.497 93.319C194.694 93.5437 194.944 93.7114 195.249 93.8222C195.557 93.9299 195.894 93.9838 196.26 93.9838C196.663 93.9838 197.022 93.9207 197.336 93.7945C197.653 93.6653 197.902 93.4868 198.084 93.259C198.265 93.0282 198.356 92.7589 198.356 92.4511C198.356 92.1711 198.276 91.9418 198.116 91.7633C197.959 91.5848 197.745 91.437 197.474 91.3201C197.206 91.2031 196.903 91.1 196.565 91.0108L195.448 90.7061C194.691 90.4999 194.09 90.1967 193.647 89.7967C193.207 89.3966 192.987 88.8672 192.987 88.2086C192.987 87.6638 193.135 87.1883 193.43 86.7821C193.726 86.3758 194.126 86.0604 194.631 85.8357C195.135 85.608 195.705 85.4941 196.339 85.4941C196.979 85.4941 197.544 85.6064 198.033 85.8311C198.525 86.0558 198.913 86.3651 199.196 86.759C199.479 87.1499 199.627 87.5992 199.639 88.107H198.264ZM214.426 90.3506C214.426 91.3601 214.242 92.228 213.872 92.9543C213.503 93.6776 212.997 94.2346 212.354 94.6255C211.713 95.0133 210.986 95.2072 210.17 95.2072C209.351 95.2072 208.62 95.0133 207.977 94.6255C207.337 94.2346 206.832 93.676 206.463 92.9497C206.094 92.2234 205.909 91.357 205.909 90.3506C205.909 89.3412 206.094 88.4748 206.463 87.7516C206.832 87.0252 207.337 86.4682 207.977 86.0804C208.62 85.6895 209.351 85.4941 210.17 85.4941C210.986 85.4941 211.713 85.6895 212.354 86.0804C212.997 86.4682 213.503 87.0252 213.872 87.7516C214.242 88.4748 214.426 89.3412 214.426 90.3506ZM213.014 90.3506C213.014 89.5812 212.889 88.9334 212.64 88.4071C212.394 87.8777 212.055 87.4776 211.624 87.2068C211.196 86.9329 210.712 86.7959 210.17 86.7959C209.625 86.7959 209.139 86.9329 208.711 87.2068C208.283 87.4776 207.945 87.8777 207.696 88.4071C207.449 88.9334 207.326 89.5812 207.326 90.3506C207.326 91.12 207.449 91.7694 207.696 92.2988C207.945 92.8251 208.283 93.2252 208.711 93.4991C209.139 93.7699 209.625 93.9053 210.17 93.9053C210.712 93.9053 211.196 93.7699 211.624 93.4991C212.055 93.2252 212.394 92.8251 212.64 92.2988C212.889 91.7694 213.014 91.12 213.014 90.3506ZM216.855 95.0779V85.6234H220.225C220.961 85.6234 221.57 85.7572 222.053 86.025C222.536 86.2927 222.898 86.659 223.138 87.1237C223.378 87.5854 223.498 88.1055 223.498 88.6841C223.498 89.2658 223.376 89.789 223.133 90.2537C222.893 90.7153 222.53 91.0816 222.044 91.3524C221.561 91.6202 220.953 91.754 220.22 91.754H217.903V90.5445H220.091C220.556 90.5445 220.933 90.4645 221.222 90.3045C221.511 90.1413 221.724 89.9198 221.859 89.6397C221.995 89.3596 222.062 89.0411 222.062 88.6841C222.062 88.3271 221.995 88.0101 221.859 87.7331C221.724 87.4561 221.51 87.2391 221.217 87.0822C220.928 86.9252 220.547 86.8467 220.073 86.8467H218.281V95.0779H216.855ZM225.82 95.0779V85.6234H231.748V86.8513H227.247V89.732H231.439V90.9554H227.247V93.8499H231.803V95.0779H225.82ZM234.303 95.0779V85.6234H237.673C238.406 85.6234 239.014 85.7495 239.497 86.0019C239.983 86.2543 240.346 86.6036 240.586 87.0498C240.826 87.493 240.946 88.0055 240.946 88.5871C240.946 89.1657 240.825 89.6751 240.582 90.1152C240.342 90.5522 239.979 90.8923 239.492 91.1354C239.009 91.3786 238.401 91.5001 237.669 91.5001H235.116V90.2721H237.54C238.001 90.2721 238.377 90.206 238.666 90.0736C238.958 89.9413 239.172 89.7489 239.308 89.4966C239.443 89.2442 239.511 88.9411 239.511 88.5871C239.511 88.2301 239.441 87.9208 239.303 87.6592C239.168 87.3976 238.954 87.1976 238.661 87.0591C238.372 86.9175 237.992 86.8467 237.521 86.8467H235.73V95.0779H234.303ZM238.971 90.8123L241.307 95.0779H239.682L237.392 90.8123H238.971ZM244.131 95.0779H242.617L246.019 85.6234H247.667L251.069 95.0779H249.555L246.882 87.3407H246.808L244.131 95.0779ZM244.385 91.3755H249.297V92.5758H244.385V91.3755ZM251.501 86.8513V85.6234H258.818V86.8513H255.869V95.0779H254.447V86.8513H251.501ZM262.512 85.6234V95.0779H261.085V85.6234H262.512ZM273.452 90.3506C273.452 91.3601 273.267 92.228 272.898 92.9543C272.529 93.6776 272.022 94.2346 271.379 94.6255C270.739 95.0133 270.011 95.2072 269.196 95.2072C268.377 95.2072 267.646 95.0133 267.003 94.6255C266.363 94.2346 265.858 93.676 265.489 92.9497C265.119 92.2234 264.935 91.357 264.935 90.3506C264.935 89.3412 265.119 88.4748 265.489 87.7516C265.858 87.0252 266.363 86.4682 267.003 86.0804C267.646 85.6895 268.377 85.4941 269.196 85.4941C270.011 85.4941 270.739 85.6895 271.379 86.0804C272.022 86.4682 272.529 87.0252 272.898 87.7516C273.267 88.4748 273.452 89.3412 273.452 90.3506ZM272.039 90.3506C272.039 89.5812 271.915 88.9334 271.665 88.4071C271.419 87.8777 271.081 87.4776 270.65 87.2068C270.222 86.9329 269.737 86.7959 269.196 86.7959C268.651 86.7959 268.165 86.9329 267.737 87.2068C267.309 87.4776 266.97 87.8777 266.721 88.4071C266.475 88.9334 266.352 89.5812 266.352 90.3506C266.352 91.12 266.475 91.7694 266.721 92.2988C266.97 92.8251 267.309 93.2252 267.737 93.4991C268.165 93.7699 268.651 93.9053 269.196 93.9053C269.737 93.9053 270.222 93.7699 270.65 93.4991C271.081 93.2252 271.419 92.8251 271.665 92.2988C271.915 91.7694 272.039 91.12 272.039 90.3506ZM283.512 85.6234V95.0779H282.2L277.395 88.144H277.307V95.0779H275.881V85.6234H277.201L282.011 92.5665H282.099V85.6234H283.512ZM287.041 95.0779H285.527L288.929 85.6234H290.577L293.98 95.0779H292.465L289.792 87.3407H289.719L287.041 95.0779ZM287.295 91.3755H292.207V92.5758H287.295V91.3755ZM295.995 95.0779V85.6234H297.421V93.8499H301.706V95.0779H295.995Z" fill="white"/>
<g opacity="0.8" filter="url(#filter0_f_1_1630)">
<path d="M76.75 90.0781C76.75 82.3461 83.018 76.0781 90.75 76.0781C98.482 76.0781 104.75 82.3461 104.75 90.0781V91.0781C104.75 98.8101 98.482 105.078 90.75 105.078C83.018 105.078 76.75 98.8101 76.75 91.0781V90.0781Z" fill="#24E98A"/>
</g>
</g>
<defs>
<filter id="filter0_f_1_1630" x="0.75" y="0.078125" width="180" height="181" filterUnits="userSpaceOnUse" color-interpolation-filters="sRGB">
<feFlood flood-opacity="0" result="BackgroundImageFix"/>
<feBlend mode="normal" in="SourceGraphic" in2="BackgroundImageFix" result="shape"/>
<feGaussianBlur stdDeviation="38" result="effect1_foregroundBlur_1_1630"/>
</filter>
<linearGradient id="paint0_linear_1_1630" x1="111.242" y1="72.4177" x2="202.992" y2="107.562" gradientUnits="userSpaceOnUse">
<stop stop-color="#0EA65E"/>
<stop offset="1" stop-color="#0EA65E" stop-opacity="0"/>
</linearGradient>
<linearGradient id="paint1_linear_1_1630" x1="108.25" y1="59.5781" x2="139.25" y2="111.578" gradientUnits="userSpaceOnUse">
<stop stop-color="#232A27"/>
<stop offset="1" stop-color="#232A27" stop-opacity="0"/>
</linearGradient>
<linearGradient id="paint2_linear_1_1630" x1="118.25" y1="78.0781" x2="194.75" y2="117.078" gradientUnits="userSpaceOnUse">
<stop stop-color="#0EA65E"/>
<stop offset="1" stop-color="#0EA65E" stop-opacity="0"/>
</linearGradient>
<linearGradient id="paint3_linear_1_1630" x1="100.25" y1="68.5781" x2="120.75" y2="101.078" gradientUnits="userSpaceOnUse">
<stop stop-color="#232A27"/>
<stop offset="1" stop-color="#232A27" stop-opacity="0"/>
</linearGradient>
<radialGradient id="paint4_radial_1_1630" cx="0" cy="0" r="1" gradientUnits="userSpaceOnUse" gradientTransform="translate(93.25 93.6539) rotate(2.73015) scale(64.5733 53.2506)">
<stop stop-color="#0BE27B"/>
<stop offset="1" stop-color="#161616"/>
</radialGradient>
<radialGradient id="paint5_radial_1_1630" cx="0" cy="0" r="1" gradientUnits="userSpaceOnUse" gradientTransform="translate(270.75 76.0781) rotate(161.427) scale(71.736 93.1489)">
<stop stop-color="white" stop-opacity="0.18"/>
<stop offset="1" stop-color="white" stop-opacity="0.04"/>
</radialGradient>
<linearGradient id="paint6_linear_1_1630" x1="91.75" y1="77.8357" x2="92.5271" y2="83.1411" gradientUnits="userSpaceOnUse">
<stop stop-color="#0CC86E"/>
<stop offset="1" stop-opacity="0"/>
</linearGradient>
<linearGradient id="paint7_linear_1_1630" x1="92.75" y1="86.5781" x2="92.75" y2="94.5781" gradientUnits="userSpaceOnUse">
<stop stop-color="#10834B"/>
<stop offset="1" stop-color="#09F785"/>
</linearGradient>
<radialGradient id="paint8_radial_1_1630" cx="0" cy="0" r="1" gradientUnits="userSpaceOnUse" gradientTransform="translate(92.4103 86.5781) rotate(87.5684) scale(8.00721 8.77333)">
<stop stop-color="white" stop-opacity="0.48"/>
<stop offset="1" stop-color="white" stop-opacity="0.04"/>
</radialGradient>
<clipPath id="clip0_1_1630">
<rect width="337" height="181" fill="white" transform="translate(0.75 0.078125)"/>
</clipPath>
</defs>
</svg>
