<svg width="25" height="25" viewBox="0 0 25 25" fill="none" xmlns="http://www.w3.org/2000/svg">
<g clip-path="url(#clip0_1_1688)">
<mask id="mask0_1_1688" style="mask-type:luminance" maskUnits="userSpaceOnUse" x="0" y="0" width="25" height="25">
<path d="M24.751 0.078125H0.750977V24.0781H24.751V0.078125Z" fill="white"/>
</mask>
<g mask="url(#mask0_1_1688)">
<path d="M21.1736 20.2994H17.6222V14.7925C17.6222 13.4793 17.5985 11.7888 15.7751 11.7888C13.9254 11.7888 13.6424 13.2196 13.6424 14.6969V20.299H10.0909V8.97458H13.5003V10.5222H13.548C13.8892 9.94455 14.3823 9.46935 14.9747 9.14721C15.567 8.82508 16.2366 8.66807 16.9119 8.69289C20.5115 8.69289 21.1751 11.0372 21.1751 14.087L21.1736 20.2994ZM6.08369 7.4266C5.67607 7.42667 5.27758 7.30705 4.93862 7.08288C4.59965 6.85871 4.33546 6.54005 4.1794 6.1672C4.02335 5.79435 3.98245 5.38406 4.0619 4.98819C4.14135 4.59233 4.33758 4.22868 4.62575 3.94324C4.91393 3.6578 5.28112 3.46338 5.68089 3.38457C6.08066 3.30576 6.49505 3.3461 6.87167 3.50048C7.24828 3.65488 7.57021 3.91637 7.79673 4.25191C8.02325 4.58745 8.1442 4.98197 8.14427 5.38557C8.14432 5.65356 8.09105 5.91892 7.98752 6.16652C7.884 6.41412 7.73224 6.63912 7.5409 6.82865C7.34956 7.01817 7.12237 7.16852 6.87235 7.27111C6.62232 7.37371 6.35434 7.42655 6.08369 7.4266ZM7.85941 20.2994H4.30427V8.97458H7.85941V20.2994ZM22.9442 0.0797419H2.51968C2.0561 0.0745619 1.60938 0.251827 1.27773 0.572585C0.946086 0.893342 0.756634 1.33134 0.750977 1.79035V22.0976C0.756441 22.5568 0.945781 22.9951 1.27742 23.3162C1.60905 23.6373 2.05587 23.8149 2.51968 23.81H22.9442C23.4089 23.8158 23.857 23.6387 24.1899 23.3176C24.5229 22.9965 24.7135 22.5577 24.7199 22.0976V1.7889C24.7133 1.32897 24.5225 0.890468 24.1896 0.569719C23.8566 0.248969 23.4087 0.0722103 22.9442 0.0782761" fill="white" fill-opacity="0.4"/>
</g>
</g>
<defs>
<clipPath id="clip0_1_1688">
<rect width="24" height="24" fill="white" transform="translate(0.750977 0.078125)"/>
</clipPath>
</defs>
</svg>
