<svg width="111" height="20" viewBox="0 0 111 20" fill="none" xmlns="http://www.w3.org/2000/svg">
<path d="M45.0542 7.27412L42.4253 7.73975C42.3153 7.40346 42.1407 7.08334 41.9014 6.77938C41.6686 6.47543 41.3517 6.22644 40.9508 6.03243C40.5498 5.83841 40.0486 5.74141 39.4471 5.74141C38.6259 5.74141 37.9403 5.92572 37.3907 6.29434C36.8409 6.65651 36.5661 7.12537 36.5661 7.70095C36.5661 8.19891 36.7504 8.59987 37.1191 8.90383C37.4876 9.20778 38.0826 9.45676 38.9039 9.65078L41.2709 10.194C42.6419 10.5109 43.6637 10.9991 44.3363 11.6588C45.0089 12.3184 45.3452 13.1753 45.3452 14.2295C45.3452 15.122 45.0865 15.9174 44.5691 16.6158C44.0582 17.3078 43.3436 17.851 42.4253 18.2456C41.5134 18.6401 40.456 18.8373 39.2532 18.8373C37.5846 18.8373 36.2233 18.4817 35.1692 17.7702C34.1151 17.0524 33.4683 16.0339 33.229 14.7145L36.0325 14.2877C36.2071 15.0184 36.5661 15.5714 37.1093 15.9465C37.6525 16.3151 38.3607 16.4994 39.2338 16.4994C40.1844 16.4994 40.9443 16.3022 41.5134 15.9077C42.0826 15.5067 42.3671 15.0184 42.3671 14.4429C42.3671 13.9773 42.1924 13.5861 41.8432 13.2692C41.5005 12.9522 40.9734 12.713 40.262 12.5513L37.7398 11.9983C36.3494 11.6815 35.3212 11.177 34.6551 10.4851C33.9954 9.79307 33.6656 8.91676 33.6656 7.85616C33.6656 6.97663 33.9113 6.20705 34.4029 5.5474C34.8944 4.88775 35.5734 4.37361 36.4399 4.00499C37.3066 3.62989 38.2992 3.44235 39.4181 3.44235C41.0284 3.44235 42.2959 3.79157 43.2207 4.49002C44.1455 5.182 44.7567 6.11003 45.0542 7.27412ZM54.2642 18.8373C52.8221 18.8373 51.5804 18.5107 50.5392 17.8576C49.5044 17.1979 48.709 16.2893 48.1528 15.1316C47.5967 13.9741 47.3186 12.6483 47.3186 11.1543C47.3186 9.64108 47.6031 8.30562 48.1722 7.148C48.7414 5.98392 49.5432 5.0753 50.578 4.42212C51.6127 3.76894 52.8318 3.44235 54.2351 3.44235C55.3669 3.44235 56.3757 3.65253 57.2618 4.0729C58.1477 4.48679 58.8624 5.06883 59.4056 5.81902C59.9553 6.5692 60.2819 7.44549 60.3854 8.44789H57.5625C57.4072 7.74945 57.0515 7.148 56.4954 6.64357C55.9457 6.13913 55.2084 5.88692 54.2836 5.88692C53.4752 5.88692 52.7671 6.10033 52.1592 6.52716C51.5578 6.94752 51.0889 7.54897 50.7526 8.33148C50.4163 9.10754 50.2482 10.0259 50.2482 11.0864C50.2482 12.173 50.4131 13.1106 50.743 13.8997C51.0727 14.6887 51.5384 15.2998 52.1398 15.7331C52.7477 16.1663 53.4624 16.383 54.2836 16.383C54.8334 16.383 55.3313 16.2828 55.7776 16.0823C56.2303 15.8754 56.6086 15.5811 56.9125 15.1995C57.223 14.818 57.4396 14.3588 57.5625 13.8221H60.3854C60.2819 14.7857 59.9682 15.6458 59.4444 16.4024C58.9206 17.1591 58.2189 17.7541 57.3393 18.1873C56.4663 18.6207 55.4413 18.8373 54.2642 18.8373ZM69.2172 18.8373C67.8202 18.8373 66.6012 18.5172 65.56 17.877C64.5188 17.2367 63.7104 16.341 63.1349 15.1899C62.5592 14.0387 62.2714 12.6936 62.2714 11.1543C62.2714 9.60874 62.5592 8.25711 63.1349 7.0995C63.7104 5.94188 64.5188 5.04296 65.56 4.40271C66.6012 3.76247 67.8202 3.44235 69.2172 3.44235C70.6141 3.44235 71.8331 3.76247 72.8743 4.40271C73.9155 5.04296 74.7239 5.94188 75.2994 7.0995C75.875 8.25711 76.1629 9.60874 76.1629 11.1543C76.1629 12.6936 75.875 14.0387 75.2994 15.1899C74.7239 16.341 73.9155 17.2367 72.8743 17.877C71.8331 18.5172 70.6141 18.8373 69.2172 18.8373ZM69.2269 16.4024C70.1322 16.4024 70.8825 16.1631 71.4774 15.6846C72.0724 15.2061 72.5121 14.569 72.7967 13.7736C73.0877 12.9781 73.2332 12.1019 73.2332 11.1447C73.2332 10.1941 73.0877 9.32096 72.7967 8.5255C72.5121 7.72358 72.0724 7.0801 71.4774 6.59507C70.8825 6.11003 70.1322 5.86751 69.2269 5.86751C68.315 5.86751 67.5584 6.11003 66.9569 6.59507C66.3619 7.0801 65.9189 7.72358 65.6279 8.5255C65.3433 9.32096 65.2011 10.1941 65.2011 11.1447C65.2011 12.1019 65.3433 12.9781 65.6279 13.7736C65.9189 14.569 66.3619 15.2061 66.9569 15.6846C67.5584 16.1631 68.315 16.4024 69.2269 16.4024ZM88.2928 12.3573V3.63636H91.203V18.5366H88.351V15.9562H88.1958C87.8531 16.7517 87.3033 17.4145 86.5468 17.9449C85.7965 18.4687 84.8621 18.7306 83.7432 18.7306C82.7861 18.7306 81.9389 18.5204 81.2017 18.1001C80.4708 17.6733 79.8952 17.0427 79.4749 16.2084C79.061 15.3741 78.8541 14.3426 78.8541 13.114V3.63636H81.7546V12.7647C81.7546 13.78 82.0359 14.5884 82.5986 15.1899C83.1612 15.7913 83.8919 16.092 84.7908 16.092C85.3342 16.092 85.8742 15.9562 86.4109 15.6846C86.9542 15.413 87.4036 15.0023 87.7593 14.4526C88.1215 13.9029 88.2993 13.2045 88.2928 12.3573ZM101.509 3.63636V5.96453H93.3705V3.63636H101.509ZM95.5531 0.0665207H98.4536V14.1616C98.4536 14.7242 98.5377 15.1478 98.7058 15.4324C98.874 15.7104 99.0906 15.9013 99.3557 16.0047C99.6273 16.1018 99.9216 16.1502 100.239 16.1502C100.471 16.1502 100.675 16.1341 100.85 16.1018C101.024 16.0694 101.16 16.0435 101.257 16.0241L101.781 18.4202C101.613 18.4849 101.373 18.5496 101.063 18.6141C100.753 18.6854 100.365 18.7241 99.8989 18.7306C99.1358 18.7435 98.4245 18.6077 97.7648 18.3231C97.1052 18.0386 96.5716 17.5988 96.1642 17.0039C95.7568 16.4089 95.5531 15.662 95.5531 14.763V0.0665207Z" fill="white"/>
<path fill-rule="evenodd" clip-rule="evenodd" d="M16.7689 19.9088C15.9607 19.9052 15.3084 19.247 15.312 18.4388L15.3376 12.6476L10.1816 15.6244C9.48171 16.0286 8.5867 15.7887 8.18259 15.0888C7.77847 14.3889 8.01829 13.4939 8.71823 13.0898L13.6804 10.2248L8.66945 7.33176C7.96951 6.92764 7.72969 6.03264 8.1338 5.33269C8.53792 4.63275 9.43293 4.39294 10.1329 4.79705L15.3591 7.81438L15.3855 1.85365C15.389 1.04545 16.0471 0.393158 16.8553 0.396739C17.6636 0.40032 18.3158 1.05841 18.3123 1.86663L18.287 7.56519L23.0816 4.79705C23.7816 4.39294 24.6765 4.63275 25.0807 5.33269C25.4848 6.03264 25.245 6.92764 24.545 7.33176L19.534 10.2248L24.4962 13.0898C25.1962 13.4939 25.436 14.3889 25.0319 15.0888C24.6277 15.7887 23.7328 16.0286 23.0328 15.6244L18.2635 12.8709L18.2387 18.4518C18.2352 19.26 17.5771 19.9123 16.7689 19.9088Z" fill="white"/>
</svg>
