<svg width="743" height="427" viewBox="0 0 743 427" fill="none" xmlns="http://www.w3.org/2000/svg">
<g clip-path="url(#clip0_1_1146)">
<mask id="mask0_1_1146" style="mask-type:luminance" maskUnits="userSpaceOnUse" x="44" y="2" width="684" height="424">
<path d="M727.953 2.04688H44.9531V425.047H727.953V2.04688Z" fill="white"/>
</mask>
<g mask="url(#mask0_1_1146)">
<mask id="mask1_1_1146" style="mask-type:luminance" maskUnits="userSpaceOnUse" x="383" y="198" width="428" height="427">
<path d="M810.36 354.538L540.444 198.047L383.953 467.963L653.869 624.454L810.36 354.538Z" fill="white"/>
</mask>
<g mask="url(#mask1_1_1146)">
<path d="M708.674 363.238C708.913 363.377 709.219 363.296 709.357 363.057C709.496 362.818 709.415 362.512 709.176 362.373C708.937 362.235 708.631 362.316 708.492 362.555C708.354 362.794 708.435 363.1 708.674 363.238Z" fill="white" fill-opacity="0.5"/>
<path d="M652.289 399.428C652.528 399.567 652.834 399.486 652.973 399.247C653.111 399.008 653.03 398.702 652.791 398.563C652.552 398.425 652.246 398.506 652.108 398.745C651.969 398.984 652.05 399.29 652.289 399.428Z" fill="white" fill-opacity="0.5"/>
<path d="M637.747 345.21C637.986 345.349 638.292 345.268 638.431 345.029C638.569 344.79 638.488 344.484 638.249 344.345C638.01 344.207 637.704 344.288 637.566 344.527C637.427 344.766 637.508 345.072 637.747 345.21Z" fill="white" fill-opacity="0.5"/>
<path d="M560.994 356.476C561.233 356.614 561.539 356.533 561.678 356.294C561.816 356.055 561.735 355.749 561.496 355.61C561.257 355.472 560.951 355.553 560.813 355.792C560.674 356.031 560.756 356.337 560.994 356.476Z" fill="white" fill-opacity="0.5"/>
<path d="M497.42 347.008C497.659 347.147 497.965 347.066 498.104 346.827C498.242 346.588 498.161 346.282 497.922 346.143C497.683 346.005 497.377 346.086 497.238 346.325C497.1 346.564 497.181 346.87 497.42 347.008Z" fill="white" fill-opacity="0.5"/>
<path d="M622.61 401.139C622.849 401.278 623.155 401.196 623.294 400.958C623.432 400.719 623.351 400.413 623.112 400.274C622.873 400.136 622.567 400.217 622.428 400.456C622.29 400.695 622.371 401.001 622.61 401.139Z" fill="white" fill-opacity="0.5"/>
<path d="M632.667 343.876C632.906 344.015 633.212 343.934 633.351 343.695C633.489 343.456 633.408 343.15 633.169 343.011C632.93 342.873 632.624 342.954 632.486 343.193C632.347 343.432 632.428 343.738 632.667 343.876Z" fill="white" fill-opacity="0.5"/>
<path d="M621.242 405.938C621.48 406.077 621.786 405.996 621.925 405.757C622.063 405.518 621.982 405.212 621.743 405.073C621.504 404.935 621.198 405.016 621.06 405.255C620.921 405.494 621.003 405.8 621.242 405.938Z" fill="white" fill-opacity="0.5"/>
<path d="M543.275 363.835C543.514 363.974 543.82 363.893 543.959 363.654C544.097 363.415 544.016 363.109 543.777 362.97C543.538 362.832 543.232 362.913 543.093 363.152C542.955 363.391 543.036 363.697 543.275 363.835Z" fill="white" fill-opacity="0.5"/>
<path d="M690.792 331.735C691.031 331.873 691.337 331.792 691.476 331.553C691.614 331.314 691.533 331.008 691.294 330.869C691.055 330.731 690.749 330.812 690.611 331.051C690.472 331.29 690.553 331.596 690.792 331.735Z" fill="white" fill-opacity="0.5"/>
<path d="M722.624 372.12C722.863 372.259 723.169 372.177 723.308 371.939C723.446 371.7 723.365 371.394 723.126 371.255C722.887 371.117 722.581 371.198 722.443 371.437C722.304 371.676 722.385 371.982 722.624 372.12Z" fill="white" fill-opacity="0.5"/>
<path d="M449.878 408.612C450.117 408.75 450.423 408.669 450.562 408.43C450.7 408.191 450.619 407.885 450.38 407.746C450.141 407.608 449.835 407.689 449.696 407.928C449.558 408.167 449.639 408.473 449.878 408.612Z" fill="white" fill-opacity="0.5"/>
<path d="M669.19 347.597C669.429 347.736 669.735 347.654 669.874 347.416C670.012 347.177 669.931 346.871 669.692 346.732C669.453 346.594 669.147 346.675 669.008 346.914C668.87 347.153 668.951 347.459 669.19 347.597Z" fill="white" fill-opacity="0.5"/>
<path d="M536.651 367.085C536.89 367.224 537.196 367.143 537.335 366.904C537.473 366.665 537.392 366.359 537.153 366.22C536.914 366.082 536.608 366.163 536.469 366.402C536.331 366.641 536.412 366.947 536.651 367.085Z" fill="white" fill-opacity="0.5"/>
<path d="M547.65 243.49C547.889 243.629 548.195 243.548 548.334 243.309C548.472 243.07 548.391 242.764 548.152 242.625C547.913 242.487 547.607 242.568 547.468 242.807C547.33 243.046 547.411 243.352 547.65 243.49Z" fill="white" fill-opacity="0.5"/>
<path d="M516.216 403.792C516.455 403.931 516.761 403.85 516.899 403.611C517.038 403.372 516.957 403.066 516.718 402.927C516.479 402.789 516.173 402.87 516.034 403.109C515.896 403.348 515.977 403.654 516.216 403.792Z" fill="white" fill-opacity="0.5"/>
<path d="M650.831 424.918C651.07 425.057 651.376 424.976 651.515 424.737C651.653 424.498 651.572 424.192 651.333 424.053C651.094 423.915 650.788 423.996 650.65 424.235C650.511 424.474 650.592 424.78 650.831 424.918Z" fill="white" fill-opacity="0.5"/>
<path d="M601.768 354.649C602.007 354.788 602.313 354.706 602.452 354.468C602.59 354.229 602.509 353.923 602.27 353.784C602.031 353.646 601.725 353.727 601.587 353.966C601.448 354.205 601.529 354.511 601.768 354.649Z" fill="white" fill-opacity="0.5"/>
<path d="M611.601 403.001C611.84 403.14 612.146 403.059 612.285 402.82C612.423 402.581 612.342 402.275 612.103 402.136C611.864 401.998 611.558 402.079 611.42 402.318C611.281 402.557 611.362 402.863 611.601 403.001Z" fill="white" fill-opacity="0.5"/>
</g>
<mask id="mask2_1_1146" style="mask-type:luminance" maskUnits="userSpaceOnUse" x="200" y="-158" width="313" height="313">
<path d="M512.953 154.047H200.953V-157.953H512.953V154.047Z" fill="white"/>
</mask>
<g mask="url(#mask2_1_1146)">
<path d="M485.095 123.156C485.371 123.156 485.595 123.38 485.595 123.656C485.595 123.932 485.371 124.156 485.095 124.156C484.819 124.156 484.595 123.932 484.595 123.656C484.595 123.38 484.819 123.156 485.095 123.156Z" fill="white" fill-opacity="0.5"/>
<path d="M429.347 95.5176C429.623 95.5176 429.847 95.7414 429.847 96.0176C429.847 96.2937 429.623 96.5176 429.347 96.5176C429.071 96.5176 428.847 96.2937 428.847 96.0176C428.847 95.7414 429.071 95.5176 429.347 95.5176Z" fill="white" fill-opacity="0.5"/>
<path d="M398.72 35.9277C398.996 35.9277 399.22 36.1516 399.22 36.4277C399.22 36.7039 398.996 36.9277 398.72 36.9277C398.444 36.9277 398.22 36.7039 398.22 36.4277C398.22 36.1516 398.444 35.9277 398.72 35.9277Z" fill="white" fill-opacity="0.5"/>
<path d="M358.945 75.5386C359.221 75.5386 359.445 75.7624 359.445 76.0386C359.445 76.3147 359.221 76.5386 358.945 76.5386C358.669 76.5386 358.445 76.3147 358.445 76.0386C358.445 75.7624 358.669 75.5386 358.945 75.5386Z" fill="white" fill-opacity="0.5"/>
<path d="M493.98 44.0833C494.256 44.0833 494.48 44.3071 494.48 44.5833C494.48 44.8594 494.256 45.0833 493.98 45.0833C493.704 45.0833 493.48 44.8594 493.48 44.5833C493.48 44.3071 493.704 44.0833 493.98 44.0833Z" fill="white" fill-opacity="0.5"/>
<path d="M298.195 27.2949C298.471 27.2949 298.695 27.5188 298.695 27.7949C298.695 28.0711 298.471 28.2949 298.195 28.2949C297.919 28.2949 297.695 28.0711 297.695 27.7949C297.695 27.5188 297.919 27.2949 298.195 27.2949Z" fill="white" fill-opacity="0.5"/>
<path d="M238.447 3.59863C238.723 3.59863 238.947 3.82249 238.947 4.09863C238.947 4.37478 238.723 4.59863 238.447 4.59863C238.171 4.59863 237.947 4.37478 237.947 4.09863C237.947 3.82249 238.171 3.59863 238.447 3.59863Z" fill="white" fill-opacity="0.5"/>
<path d="M373.902 19.5605C374.178 19.5605 374.402 19.7844 374.402 20.0605C374.402 20.3367 374.178 20.5605 373.902 20.5605C373.626 20.5605 373.402 20.3367 373.402 20.0605C373.402 19.7844 373.626 19.5605 373.902 19.5605Z" fill="white" fill-opacity="0.5"/>
<path d="M503.846 50.2222C504.122 50.2222 504.346 50.446 504.346 50.7222C504.346 50.9983 504.122 51.2222 503.846 51.2222C503.57 51.2222 503.346 50.9983 503.346 50.7222C503.346 50.446 503.57 50.2222 503.846 50.2222Z" fill="white" fill-opacity="0.5"/>
<path d="M353.881 74.144C354.157 74.144 354.381 74.3679 354.381 74.644C354.381 74.9202 354.157 75.144 353.881 75.144C353.605 75.144 353.381 74.9202 353.381 74.644C353.381 74.3679 353.605 74.144 353.881 74.144Z" fill="white" fill-opacity="0.5"/>
<path d="M375.125 14.7224C375.401 14.7224 375.625 14.9463 375.625 15.2224C375.625 15.4986 375.401 15.7224 375.125 15.7224C374.849 15.7224 374.625 15.4986 374.625 15.2224C374.625 14.9463 374.849 14.7224 375.125 14.7224Z" fill="white" fill-opacity="0.5"/>
<path d="M286.557 12.0405C286.833 12.0405 287.057 12.2644 287.057 12.5405C287.057 12.8167 286.833 13.0405 286.557 13.0405C286.281 13.0405 286.057 12.8167 286.057 12.5405C286.057 12.2644 286.281 12.0405 286.557 12.0405Z" fill="white" fill-opacity="0.5"/>
<path d="M398.076 113.803C398.352 113.803 398.576 114.027 398.576 114.303C398.576 114.579 398.352 114.803 398.076 114.803C397.8 114.803 397.576 114.579 397.576 114.303C397.576 114.027 397.8 113.803 398.076 113.803Z" fill="white" fill-opacity="0.5"/>
<path d="M445.87 94.8301C446.146 94.8301 446.37 95.0539 446.37 95.3301C446.37 95.6062 446.146 95.8301 445.87 95.8301C445.594 95.8301 445.37 95.6062 445.37 95.3301C445.37 95.0539 445.594 94.8301 445.87 94.8301Z" fill="white" fill-opacity="0.5"/>
<path d="M387.343 89.2439C387.619 89.2439 387.843 89.4678 387.843 89.7439C387.843 90.02 387.619 90.2439 387.343 90.2439C387.067 90.2439 386.843 90.02 386.843 89.7439C386.843 89.4678 387.067 89.2439 387.343 89.2439Z" fill="white" fill-opacity="0.5"/>
<path d="M282.457 5.90649C282.733 5.90649 282.957 6.13035 282.957 6.40649C282.957 6.68264 282.733 6.90649 282.457 6.90649C282.181 6.90649 281.957 6.68264 281.957 6.40649C281.957 6.13035 282.181 5.90649 282.457 5.90649Z" fill="white" fill-opacity="0.5"/>
<path d="M513.428 52.3164C513.704 52.3164 513.928 52.5403 513.928 52.8164C513.928 53.0925 513.704 53.3164 513.428 53.3164C513.152 53.3164 512.928 53.0925 512.928 52.8164C512.928 52.5403 513.152 52.3164 513.428 52.3164Z" fill="white" fill-opacity="0.5"/>
<path d="M229.98 118.347C230.256 118.347 230.48 118.571 230.48 118.847C230.48 119.123 230.256 119.347 229.98 119.347C229.704 119.347 229.48 119.123 229.48 118.847C229.48 118.571 229.704 118.347 229.98 118.347Z" fill="white" fill-opacity="0.5"/>
<path d="M410.243 13.144C410.519 13.144 410.743 13.3679 410.743 13.644C410.743 13.9202 410.519 14.144 410.243 14.144C409.967 14.144 409.743 13.9202 409.743 13.644C409.743 13.3679 409.967 13.144 410.243 13.144Z" fill="white" fill-opacity="0.5"/>
<path d="M332.553 49.3257C332.829 49.3257 333.053 49.5495 333.053 49.8257C333.053 50.1018 332.829 50.3257 332.553 50.3257C332.277 50.3257 332.053 50.1018 332.053 49.8257C332.053 49.5495 332.277 49.3257 332.553 49.3257Z" fill="white" fill-opacity="0.5"/>
<path d="M365.312 12.4275C365.588 12.4275 365.812 12.6513 365.812 12.9275C365.812 13.2036 365.588 13.4275 365.312 13.4275C365.036 13.4275 364.812 13.2036 364.812 12.9275C364.812 12.6513 365.036 12.4275 365.312 12.4275Z" fill="white" fill-opacity="0.5"/>
<path d="M501.534 67.1934C501.81 67.1934 502.034 67.4172 502.034 67.6934C502.034 67.9695 501.81 68.1934 501.534 68.1934C501.258 68.1934 501.034 67.9695 501.034 67.6934C501.034 67.4172 501.258 67.1934 501.534 67.1934Z" fill="white" fill-opacity="0.5"/>
</g>
</g>
</g>
<defs>
<clipPath id="clip0_1_1146">
<rect width="683" height="423" fill="white" transform="translate(44.9531 2.04688)"/>
</clipPath>
</defs>
</svg>
